<?xml version="1.0" encoding="UTF-8" standalone="no"?>
<!-- Created with Inkscape (http://www.inkscape.org/) -->

<svg
   xmlns:dc="http://purl.org/dc/elements/1.1/"
   xmlns:cc="http://creativecommons.org/ns#"
   xmlns:rdf="http://www.w3.org/1999/02/22-rdf-syntax-ns#"
   xmlns:svg="http://www.w3.org/2000/svg"
   xmlns="http://www.w3.org/2000/svg"
   xmlns:xlink="http://www.w3.org/1999/xlink"
   xmlns:sodipodi="http://sodipodi.sourceforge.net/DTD/sodipodi-0.dtd"
   xmlns:inkscape="http://www.inkscape.org/namespaces/inkscape"
   width="210mm"
   height="297mm"
   viewBox="0 0 210 297"
   version="1.1"
   id="svg8"
   inkscape:version="0.92.3 (2405546, 2018-03-11)"
   sodipodi:docname="drawing.svg">
  <defs
     id="defs2" />
  <sodipodi:namedview
     id="base"
     pagecolor="#ffffff"
     bordercolor="#666666"
     borderopacity="1.0"
     inkscape:pageopacity="0.0"
     inkscape:pageshadow="2"
     inkscape:zoom="1.979899"
     inkscape:cx="-738.26712"
     inkscape:cy="654.69267"
     inkscape:document-units="mm"
     inkscape:current-layer="layer1"
     showgrid="false"
     inkscape:window-width="1366"
     inkscape:window-height="705"
     inkscape:window-x="-8"
     inkscape:window-y="-8"
     inkscape:window-maximized="1" />
  <metadata
     id="metadata5">
    <rdf:RDF>
      <cc:Work
         rdf:about="">
        <dc:format>image/svg+xml</dc:format>
        <dc:type
           rdf:resource="http://purl.org/dc/dcmitype/StillImage" />
        <dc:title></dc:title>
      </cc:Work>
    </rdf:RDF>
  </metadata>
  <g
     inkscape:label="Layer 1"
     inkscape:groupmode="layer"
     id="layer1">
    <flowRoot
       xml:space="preserve"
       id="flowRoot1449"
       style="font-style:normal;font-weight:normal;font-size:16px;line-height:1.25;font-family:sans-serif;letter-spacing:0px;word-spacing:0px;fill:#000000;fill-opacity:1;stroke:none"
       transform="translate(-146.45127,-16.313675)"><flowRegion
         id="flowRegion1451"><rect
           id="rect1453"
           width="63.63961"
           height="26.870058"
           x="-303.34882"
           y="593.25024" /></flowRegion><flowPara
         id="flowPara1455" /></flowRoot>    <flowRoot
       xml:space="preserve"
       id="flowRoot1457"
       style="font-style:normal;font-weight:normal;font-size:16px;line-height:1.25;font-family:sans-serif;letter-spacing:0px;word-spacing:0px;fill:#000000;fill-opacity:1;stroke:none"
       transform="translate(-146.45127,-16.313675)"><flowRegion
         id="flowRegion1459"><rect
           id="rect1461"
           width="63.286057"
           height="35.355339"
           x="-303.34882"
           y="590.42181" /></flowRegion><flowPara
         id="flowPara1463" /></flowRoot>    <flowRoot
       xml:space="preserve"
       id="flowRoot1465"
       style="font-style:normal;font-weight:normal;font-size:16px;line-height:1.25;font-family:sans-serif;letter-spacing:0px;word-spacing:0px;fill:#000000;fill-opacity:1;stroke:none"
       transform="translate(-146.45127,-16.313675)"><flowRegion
         id="flowRegion1467"><rect
           id="rect1469"
           width="9.8994951"
           height="18.384777"
           x="-266.57925"
           y="603.14978" /></flowRegion><flowPara
         id="flowPara1471" /></flowRoot>    <path
       id="path3167"
       d="m -271.18966,125.62158 a 12.72203,11.412409 78.756695 0 0 13.67387,10.25273 12.72203,11.412409 78.756695 0 0 8.7129,-14.70301 12.72203,11.412409 78.756695 0 0 -13.67387,-10.25273 12.72203,11.412409 78.756695 0 0 -8.7129,14.70301 z"
       style="opacity:0.41700003;fill:#ececec;fill-opacity:0.35294118;stroke-width:0.25627679"
       inkscape:connector-curvature="0" />
    <path
       style="opacity:1;fill:#550000;fill-opacity:1;stroke-width:0.25648591"
       d="m -187.90066,122.29018 h 19.48693 l 1.40026,11.44735 c -7.0342,1.18607 -14.0411,2.45413 -22.28745,0 z"
       id="rect991"
       inkscape:connector-curvature="0"
       sodipodi:nodetypes="ccccc" />
    <path
       sodipodi:nodetypes="ccccc"
       inkscape:connector-curvature="0"
       id="path995"
       d="m -186.64703,120.35733 h 17.44642 l 1.25364,12.54864 c -6.29764,1.30019 -12.57083,2.69025 -19.95369,0 z"
       style="opacity:1;fill:#ffffff;fill-opacity:1;stroke-width:0.25409201" />
    <path
       style="opacity:1;fill:#550000;fill-opacity:1;stroke-width:0.09132244"
       d="m -178.68229,101.2644 a 12.33683,11.317098 0 0 0 -12.33683,11.3171 12.33683,11.317098 0 0 0 0.15368,1.72938 7.9503997,7.3807157 0 0 0 -0.15368,-0.007 7.9503997,7.3807157 0 0 0 -7.9504,7.38072 7.9503997,7.3807157 0 0 0 7.9504,7.38071 7.9503997,7.3807157 0 0 0 7.80101,-5.96991 12.33683,11.317098 0 0 0 4.53582,0.80341 12.33683,11.317098 0 0 0 4.33395,-0.72749 8.0874779,7.6267395 0 0 0 7.8658,5.89399 8.0874779,7.6267395 0 0 0 8.08748,-7.62673 8.0874779,7.6267395 0 0 0 -8.02911,-7.62385 12.33683,11.317098 0 0 0 0.0787,-1.23301 12.33683,11.317098 0 0 0 -12.33683,-11.3171 z"
       id="path838"
       inkscape:connector-curvature="0" />
    <path
       style="opacity:1;fill:#ffffff;fill-opacity:1;stroke-width:0.08671796"
       d="m -159.41794,121.12208 a 7.6797058,7.2421981 0 0 1 -7.67971,7.24219 7.6797058,7.2421981 0 0 1 -7.6797,-7.24219 7.6797058,7.2421981 0 0 1 7.6797,-7.24221 7.6797058,7.2421981 0 0 1 7.67971,7.24221 z"
       id="path817"
       inkscape:connector-curvature="0" />
    <path
       id="path820"
       d="m -182.84755,121.35569 a 7.5495394,7.0085789 0 0 1 -7.54954,7.00858 7.5495394,7.0085789 0 0 1 -7.54955,-7.00858 7.5495394,7.0085789 0 0 1 7.54955,-7.00858 7.5495394,7.0085789 0 0 1 7.54954,7.00858 z"
       style="opacity:1;fill:#ffffff;fill-opacity:1;stroke-width:0.08458178"
       inkscape:connector-curvature="0" />
    <path
       inkscape:connector-curvature="0"
       id="path822"
       d="m -166.9783,112.31347 a 11.715485,10.745865 2.3047491 0 1 -11.22031,11.11027 11.715485,10.745865 2.3047491 0 1 -12.18767,-10.37203 11.715485,10.745865 2.3047491 0 1 11.22032,-11.11029 11.715485,10.745865 2.3047491 0 1 12.18766,10.37205 z"
       style="opacity:1;fill:#ffffff;fill-opacity:1;stroke-width:0.1304675" />
    <path
       style="opacity:1;fill:#550000;fill-opacity:1;stroke-width:0.12351306"
       d="m -178.89235,102.5722 a 11.09036,10.173657 0 0 0 -11.09041,10.17366 11.09036,10.173657 0 0 0 0.14672,1.55162 7.1471188,6.6349936 0 0 0 -0.14672,-0.004 7.1471188,6.6349936 0 0 0 -7.14721,6.63499 7.1471188,6.6349936 0 0 0 0.89669,3.20217 7.1471188,6.6349936 0 0 1 -0.45482,-2.3175 7.1471188,6.6349936 0 0 1 7.0471,-6.63153 11.09036,10.173657 0 0 0 0.48675,1.40345 11.09036,10.173657 0 0 1 -0.31414,-2.35335 11.09036,10.173657 0 0 1 11.09041,-10.17365 11.09036,10.173657 0 0 1 10.2619,6.33391 11.09036,10.173657 0 0 0 -10.77627,-7.82031 z"
       id="path855"
       inkscape:connector-curvature="0" />
    <path
       style="opacity:1;fill:#550000;fill-opacity:1;stroke-width:0.1304675"
       d="m -189.88527,111.88085 a 11.714805,10.746487 0 0 0 -0.0214,0.3883 11.714805,10.746487 0 0 0 0.15224,1.64263 7.5495393,7.0085785 0 0 1 0.21059,0.01 11.714805,10.746487 0 0 1 -0.34141,-2.04052 z m 30.91235,8.71235 a 7.6797057,7.2421981 0 0 1 -7.65812,6.83656 7.6797057,7.2421981 0 0 1 -7.5469,-5.92763 7.0755449,7.6249838 47.275083 0 1 -0.0552,0.009 7.6797055,7.2421981 0 0 1 -0.009,-0.0684 11.714805,10.746487 0 0 1 -3.94962,0.63881 11.714805,10.746487 0 0 1 -4.18893,-0.7255 7.5495393,7.0085785 0 0 1 -0.11896,0.90345 11.714805,10.746487 0 0 0 4.30789,0.75653 11.714805,10.746487 0 0 0 4.00705,-0.66436 7.6797057,7.2421981 0 0 0 7.55375,6.01296 7.6797057,7.2421981 0 0 0 7.68,-7.2422 7.6797057,7.2421981 0 0 0 -0.0219,-0.52884 z m -15.31624,0.12457 a 7.6797057,7.2421981 0 0 0 -10e-4,0.0233 7.0755449,7.6249838 47.275083 0 0 0.004,-8.8e-4 7.6797057,7.2421981 0 0 1 -0.003,-0.0223 z"
       id="path940"
       inkscape:connector-curvature="0" />
    <path
       style="opacity:1;fill:#550000;fill-opacity:1;stroke-width:0.24612834"
       d="m -173.53385,132.67328 c 4e-5,0.32257 -2.10214,1.02417 -4.38997,1.02417 -2.28783,0 -4.39,-0.53641 -4.38996,-0.85898 3e-5,-0.32256 2.10218,-0.12975 4.38996,-0.12975 2.28778,0 4.38994,-0.358 4.38997,-0.0354 z"
       id="path997"
       inkscape:connector-curvature="0"
       sodipodi:nodetypes="cscsc" />
    <path
       style="opacity:1;fill:#808080;fill-opacity:1;stroke-width:0.2222425"
       d="m -203.4153,137.50438 c -0.48192,0.003 -0.96934,0.0284 -1.46302,0.0807 -2.39389,0.25399 -3.39989,1.75433 -3.42882,3.2605 h 17.98479 v -3.2605 c -4.29061,1.8227 -8.43434,-0.11683 -13.09295,-0.0807 z"
       id="rect1012"
       inkscape:connector-curvature="0" />
    <path
       style="opacity:1;fill:#808080;fill-opacity:1;stroke-width:0.22224249"
       d="m -208.30714,140.79378 c 0.0289,1.50617 1.03493,3.00653 3.42882,3.26051 0.49368,0.0523 0.9811,0.0772 1.46302,0.0807 4.65861,0.0361 8.80234,-1.90341 13.09295,-0.0807 v -3.26051 z"
       id="path1026"
       inkscape:connector-curvature="0" />
    <path
       inkscape:connector-curvature="0"
       id="path1033"
       d="m -203.4153,137.50438 c -0.48192,0.003 -0.96934,0.0284 -1.46302,0.0807 -2.39389,0.25399 -3.39989,1.75433 -3.42882,3.2605 h 17.98479 v -3.2605 c -4.29061,1.8227 -8.43434,-0.11683 -13.09295,-0.0807 z"
       style="opacity:1;fill:#999999;fill-opacity:1;stroke-width:0.2222425" />
    <path
       inkscape:connector-curvature="0"
       id="path1035"
       d="m -208.30714,140.79378 c 0.0289,1.50617 1.03493,3.00653 3.42882,3.26051 0.49368,0.0523 0.9811,0.0772 1.46302,0.0807 4.65861,0.0361 8.80234,-1.90341 13.09295,-0.0807 v -3.26051 z"
       style="opacity:1;fill:#999999;fill-opacity:1;stroke-width:0.22224249" />
    <path
       style="opacity:1;fill:#ececec;fill-opacity:1;stroke-width:0.2222425"
       d="m -203.39348,137.60643 c -0.48192,0.003 -0.96934,0.0284 -1.46302,0.0807 -2.39389,0.25399 -3.39989,1.75433 -3.42882,3.2605 h 17.98479 v -3.2605 c -4.29061,1.8227 -8.43434,-0.11683 -13.09295,-0.0807 z"
       id="path1045"
       inkscape:connector-curvature="0" />
    <path
       style="opacity:1;fill:#ececec;fill-opacity:1;stroke-width:0.22224249"
       d="m -208.28532,140.89583 c 0.0289,1.50617 1.03493,3.00653 3.42882,3.26051 0.49368,0.0523 0.9811,0.0772 1.46302,0.0807 4.65861,0.0361 8.80234,-1.90341 13.09295,-0.0807 v -3.26051 z"
       id="path1047"
       inkscape:connector-curvature="0" />
    <path
       inkscape:connector-curvature="0"
       id="path1051"
       d="m -203.46642,137.96286 c -0.48192,0.003 -0.96934,0.0284 -1.46302,0.0807 -2.39389,0.25399 -3.39989,1.75434 -3.42882,3.26051 h 17.98479 v -3.26051 c -4.29061,1.8227 -8.43434,-0.11683 -13.09295,-0.0807 z"
       style="opacity:1;fill:#808080;fill-opacity:1;stroke-width:0.2222425" />
    <path
       inkscape:connector-curvature="0"
       id="path1053"
       d="m -208.35826,141.25226 c 0.0289,1.50617 1.03493,3.00652 3.42882,3.26051 0.49368,0.0524 0.9811,0.0772 1.46302,0.0807 4.65861,0.0361 8.80234,-1.90341 13.09295,-0.0807 v -3.26051 z"
       style="opacity:1;fill:#808080;fill-opacity:1;stroke-width:0.22224249" />
    <path
       style="opacity:1;fill:#808080;fill-opacity:1;stroke-width:0.16769102"
       d="m -191.2797,136.45767 c -1.47909,0.0356 -2.78167,0.33758 -2.47966,0.90032 -0.30042,2.52668 -0.10038,4.86756 0,7.24537 0.76517,0.98747 3.33729,0.98717 4.88557,0.5474 v -8.49859 c -0.68946,-0.14924 -1.57447,-0.21452 -2.40591,-0.1945 z"
       id="rect1071"
       inkscape:connector-curvature="0" />
    <path
       style="opacity:1;fill:#cccccc;fill-opacity:1;stroke-width:0.26690745"
       d="m -191.32465,137.02247 c -0.0475,0.13237 -1.26489,0.16368 -1.26489,0.16368 -1.3808,0.0724 -1.03285,1.92096 -1.02493,1.62148 -0.004,-0.28952 -0.57545,-2.01639 1.13775,-1.86711 0.67599,0.0589 1.21753,-0.47204 1.21752,-0.17314 z"
       id="path1087"
       inkscape:connector-curvature="0"
       sodipodi:nodetypes="cscscc" />
    <path
       sodipodi:nodetypes="cscscc"
       inkscape:connector-curvature="0"
       id="path1090"
       d="m -191.32465,137.02247 c -0.0475,0.13237 -1.26489,0.16368 -1.26489,0.16368 -1.3808,0.0724 -1.03285,1.92096 -1.02493,1.62148 -0.004,-0.28952 -0.57545,-2.01639 1.13775,-1.86711 0.67599,0.0589 1.21753,-0.47204 1.21752,-0.17314 z"
       style="opacity:1;fill:#ececec;fill-opacity:1;stroke-width:0.26690745" />
    <path
       style="opacity:1;fill:#ececec;fill-opacity:1;stroke-width:0.26690745"
       d="m -191.28102,144.87157 c -0.0475,-0.13237 -1.26489,-0.16368 -1.26489,-0.16368 -1.3808,-0.0724 -1.03285,-1.92096 -1.02493,-1.62148 -0.004,0.28952 -0.57545,2.01639 1.13775,1.86711 0.67599,-0.0589 1.21753,0.47204 1.21752,0.17314 z"
       id="path1092"
       inkscape:connector-curvature="0"
       sodipodi:nodetypes="cscscc" />
    <path
       inkscape:connector-curvature="0"
       id="path1116"
       d="m -203.4153,137.50438 c -0.48192,0.003 -0.96934,0.0284 -1.46302,0.0807 -2.39389,0.25399 -3.39989,1.75433 -3.42882,3.2605 h 17.98479 v -3.2605 c -4.29061,1.8227 -8.43434,-0.11683 -13.09295,-0.0807 z"
       style="opacity:1;fill:#808080;fill-opacity:1;stroke-width:0.2222425" />
    <path
       inkscape:connector-curvature="0"
       id="path1118"
       d="m -208.30714,140.79378 c 0.0289,1.50617 1.03493,3.00653 3.42882,3.26051 0.49368,0.0523 0.9811,0.0772 1.46302,0.0807 4.65861,0.0361 8.80234,-1.90341 13.09295,-0.0807 v -3.26051 z"
       style="opacity:1;fill:#808080;fill-opacity:1;stroke-width:0.22224249" />
    <path
       style="opacity:1;fill:#999999;fill-opacity:1;stroke-width:0.2222425"
       d="m -203.4153,137.50438 c -0.48192,0.003 -0.96934,0.0284 -1.46302,0.0807 -2.39389,0.25399 -3.39989,1.75433 -3.42882,3.2605 h 17.98479 v -3.2605 c -4.29061,1.8227 -8.43434,-0.11683 -13.09295,-0.0807 z"
       id="path1122"
       inkscape:connector-curvature="0" />
    <path
       style="opacity:1;fill:#999999;fill-opacity:1;stroke-width:0.22224249"
       d="m -208.30714,140.79378 c 0.0289,1.50617 1.03493,3.00653 3.42882,3.26051 0.49368,0.0523 0.9811,0.0772 1.46302,0.0807 4.65861,0.0361 8.80234,-1.90341 13.09295,-0.0807 v -3.26051 z"
       id="path1124"
       inkscape:connector-curvature="0" />
    <path
       inkscape:connector-curvature="0"
       id="path1128"
       d="m -203.39348,137.60643 c -0.48192,0.003 -0.96934,0.0284 -1.46302,0.0807 -2.39389,0.25399 -3.39989,1.75433 -3.42882,3.2605 h 17.98479 v -3.2605 c -4.29061,1.8227 -8.43434,-0.11683 -13.09295,-0.0807 z"
       style="opacity:1;fill:#ececec;fill-opacity:1;stroke-width:0.2222425" />
    <path
       inkscape:connector-curvature="0"
       id="path1130"
       d="m -208.28532,140.89583 c 0.0289,1.50617 1.03493,3.00653 3.42882,3.26051 0.49368,0.0523 0.9811,0.0772 1.46302,0.0807 4.65861,0.0361 8.80234,-1.90341 13.09295,-0.0807 v -3.26051 z"
       style="opacity:1;fill:#ececec;fill-opacity:1;stroke-width:0.22224249" />
    <path
       style="opacity:1;fill:#808080;fill-opacity:1;stroke-width:0.2222425"
       d="m -203.46642,137.96286 c -0.48192,0.003 -0.96934,0.0284 -1.46302,0.0807 -2.39389,0.25399 -3.39989,1.75434 -3.42882,3.26051 h 17.98479 v -3.26051 c -4.29061,1.8227 -8.43434,-0.11683 -13.09295,-0.0807 z"
       id="path1134"
       inkscape:connector-curvature="0" />
    <path
       style="opacity:1;fill:#550000;fill-opacity:1;stroke-width:0.22224249"
       d="m -208.35826,141.25226 c 0.0289,1.50617 1.03493,3.00652 3.42882,3.26051 0.49368,0.0524 0.9811,0.0772 1.46302,0.0807 4.65861,0.0361 8.80234,-1.90341 13.09295,-0.0807 v -3.26051 z"
       id="path1136"
       inkscape:connector-curvature="0" />
    <path
       inkscape:connector-curvature="0"
       id="path1142"
       d="m -191.2797,136.45767 c -1.47909,0.0356 -2.78167,0.33758 -2.47966,0.90032 -0.30042,2.52668 -0.10038,4.86756 0,7.24537 0.76517,0.98747 3.33729,0.98717 4.88557,0.5474 v -8.49859 c -0.68946,-0.14924 -1.57447,-0.21452 -2.40591,-0.1945 z"
       style="opacity:1;fill:#808080;fill-opacity:1;stroke-width:0.16769102" />
    <path
       sodipodi:nodetypes="cscscc"
       inkscape:connector-curvature="0"
       id="path1144"
       d="m -191.32465,137.02247 c -0.0475,0.13237 -1.26489,0.16368 -1.26489,0.16368 -1.3808,0.0724 -1.03285,1.92096 -1.02493,1.62148 -0.004,-0.28952 -0.57545,-2.01639 1.13775,-1.86711 0.67599,0.0589 1.21753,-0.47204 1.21752,-0.17314 z"
       style="opacity:1;fill:#cccccc;fill-opacity:1;stroke-width:0.26690745" />
    <path
       style="opacity:1;fill:#ececec;fill-opacity:1;stroke-width:0.26690745"
       d="m -191.32465,137.02247 c -0.0475,0.13237 -1.26489,0.16368 -1.26489,0.16368 -1.3808,0.0724 -1.03285,1.92096 -1.02493,1.62148 -0.004,-0.28952 -0.57545,-2.01639 1.13775,-1.86711 0.67599,0.0589 1.21753,-0.47204 1.21752,-0.17314 z"
       id="path1146"
       inkscape:connector-curvature="0"
       sodipodi:nodetypes="cscscc" />
    <path
       sodipodi:nodetypes="cscscc"
       inkscape:connector-curvature="0"
       id="path1148"
       d="m -191.28102,144.87157 c -0.0475,-0.13237 -1.26489,-0.16368 -1.26489,-0.16368 -1.3808,-0.0724 -1.03285,-1.92096 -1.02493,-1.62148 -0.004,0.28952 -0.57545,2.01639 1.13775,1.86711 0.67599,-0.0589 1.21753,0.47204 1.21752,0.17314 z"
       style="opacity:1;fill:#ececec;fill-opacity:1;stroke-width:0.26690745" />
    <path
       style="opacity:1;fill:#808080;fill-opacity:1;stroke-width:0.22682588"
       d="m -153.44066,144.78535 c 0.48193,0.003 0.96957,-0.0172 1.46376,-0.0654 2.39635,-0.23404 3.41771,-1.78398 3.46213,-3.35245 l -17.98366,-0.22928 -0.0335,3.39617 c 4.30908,-1.84384 8.43261,0.22921 13.0913,0.25098 z"
       id="path1285"
       inkscape:connector-curvature="0" />
    <path
       style="opacity:1;fill:#808080;fill-opacity:1;stroke-width:0.22682586"
       d="m -148.5153,141.42145 c -0.0134,-1.5692 -1.00395,-3.1448 -3.39508,-3.43987 -0.49311,-0.0608 -0.98024,-0.0929 -1.4621,-0.10272 -4.65795,-0.097 -8.82136,1.87039 -13.09296,-0.0828 l -0.0335,3.39616 z"
       id="path1287"
       inkscape:connector-curvature="0" />
    <path
       inkscape:connector-curvature="0"
       id="path1291"
       d="m -153.44066,144.78535 c 0.48193,0.003 0.96957,-0.0172 1.46376,-0.0654 2.39635,-0.23404 3.41771,-1.78398 3.46213,-3.35245 l -17.98366,-0.22928 -0.0335,3.39617 c 4.30908,-1.84384 8.43261,0.22921 13.0913,0.25098 z"
       style="opacity:1;fill:#999999;fill-opacity:1;stroke-width:0.22682588" />
    <path
       inkscape:connector-curvature="0"
       id="path1293"
       d="m -148.5153,141.42145 c -0.0134,-1.5692 -1.00395,-3.1448 -3.39508,-3.43987 -0.49311,-0.0608 -0.98024,-0.0929 -1.4621,-0.10272 -4.65795,-0.097 -8.82136,1.87039 -13.09296,-0.0828 l -0.0335,3.39616 z"
       style="opacity:1;fill:#999999;fill-opacity:1;stroke-width:0.22682586" />
    <path
       style="opacity:1;fill:#ececec;fill-opacity:1;stroke-width:0.22682588"
       d="m -153.46142,144.67877 c 0.48193,0.003 0.96957,-0.0172 1.46376,-0.0654 2.39635,-0.23404 3.41771,-1.78398 3.46213,-3.35245 l -17.98366,-0.22928 -0.0335,3.39617 c 4.30908,-1.84384 8.43261,0.22921 13.0913,0.25098 z"
       id="path1297"
       inkscape:connector-curvature="0" />
    <path
       style="opacity:1;fill:#ececec;fill-opacity:1;stroke-width:0.22682586"
       d="m -148.53606,141.31487 c -0.0134,-1.5692 -1.00395,-3.1448 -3.39508,-3.43987 -0.49311,-0.0608 -0.98024,-0.0929 -1.4621,-0.10272 -4.65795,-0.097 -8.82136,1.87039 -13.09296,-0.0828 l -0.0335,3.39616 z"
       id="path1299"
       inkscape:connector-curvature="0" />
    <path
       inkscape:connector-curvature="0"
       id="path1303"
       d="m -153.38483,144.30845 c 0.48193,0.003 0.96957,-0.0172 1.46376,-0.0654 2.39635,-0.23404 3.41771,-1.78398 3.46213,-3.35245 l -17.98366,-0.22928 -0.0335,3.39617 c 4.30908,-1.84384 8.43261,0.22921 13.0913,0.25098 z"
       style="opacity:1;fill:#808080;fill-opacity:1;stroke-width:0.22682588" />
    <path
       inkscape:connector-curvature="0"
       id="path1305"
       d="m -148.45947,140.94455 c -0.0134,-1.5692 -1.00395,-3.1448 -3.39508,-3.43987 -0.49311,-0.0608 -0.98024,-0.0929 -1.4621,-0.10272 -4.65795,-0.097 -8.82136,1.87039 -13.09296,-0.0828 l -0.0335,3.39616 z"
       style="opacity:1;fill:#808080;fill-opacity:1;stroke-width:0.22682586" />
    <path
       style="opacity:1;fill:#808080;fill-opacity:1;stroke-width:0.17114937"
       d="m -165.58625,145.7209 c 1.47936,-0.0182 2.78497,-0.31616 2.48876,-0.90616 0.32638,-2.62798 0.15043,-5.06881 0.0745,-7.54682 -0.75498,-1.03831 -3.32694,-1.07079 -4.87964,-0.63247 l -0.0874,8.85219 c 0.68788,0.16424 1.57217,0.24352 2.40376,0.23326 z"
       id="path1311"
       inkscape:connector-curvature="0" />
    <path
       style="opacity:1;fill:#cccccc;fill-opacity:1;stroke-width:0.27241197"
       d="m -165.53551,145.13318 c 0.0488,-0.13727 1.2665,-0.15436 1.2665,-0.15436 1.38146,-0.0579 1.05254,-1.98772 1.04154,-1.67588 0.001,0.30162 0.55468,2.10762 -1.15687,1.93028 -0.67535,-0.07 -1.22232,0.47617 -1.21923,0.16483 z"
       id="path1313"
       inkscape:connector-curvature="0"
       sodipodi:nodetypes="cscscc" />
    <path
       sodipodi:nodetypes="cscscc"
       inkscape:connector-curvature="0"
       id="path1315"
       d="m -165.53551,145.13318 c 0.0488,-0.13727 1.2665,-0.15436 1.2665,-0.15436 1.38146,-0.0579 1.05254,-1.98772 1.04154,-1.67588 0.001,0.30162 0.55468,2.10762 -1.15687,1.93028 -0.67535,-0.07 -1.22232,0.47617 -1.21923,0.16483 z"
       style="opacity:1;fill:#ececec;fill-opacity:1;stroke-width:0.27241197" />
    <path
       style="opacity:1;fill:#ececec;fill-opacity:1;stroke-width:0.27241197"
       d="m -165.49842,136.95695 c 0.0461,0.13848 1.26313,0.18661 1.26313,0.18661 1.37997,0.0931 1.01303,2.01406 1.0082,1.70202 0.007,-0.30152 0.59614,-2.09295 -1.11848,-1.9593 -0.67656,0.0527 -1.21261,-0.50721 -1.21567,-0.19587 z"
       id="path1317"
       inkscape:connector-curvature="0"
       sodipodi:nodetypes="cscscc" />
    <path
       style="opacity:1;fill:#808080;fill-opacity:1;stroke-width:0.22682588"
       d="m -153.44066,144.78534 c 0.48193,0.003 0.96957,-0.0172 1.46376,-0.0654 2.39635,-0.23404 3.41771,-1.78398 3.46213,-3.35245 l -17.98366,-0.22928 -0.0335,3.39617 c 4.30908,-1.84384 8.43261,0.22921 13.0913,0.25098 z"
       id="path1321"
       inkscape:connector-curvature="0" />
    <path
       style="opacity:1;fill:#808080;fill-opacity:1;stroke-width:0.22682586"
       d="m -148.5153,141.42144 c -0.0134,-1.5692 -1.00395,-3.1448 -3.39508,-3.43987 -0.49311,-0.0608 -0.98024,-0.0929 -1.4621,-0.10272 -4.65795,-0.097 -8.82136,1.87039 -13.09296,-0.0828 l -0.0335,3.39616 z"
       id="path1323"
       inkscape:connector-curvature="0" />
    <path
       inkscape:connector-curvature="0"
       id="path1327"
       d="m -153.44066,144.78534 c 0.48193,0.003 0.96957,-0.0172 1.46376,-0.0654 2.39635,-0.23404 3.41771,-1.78398 3.46213,-3.35245 l -17.98366,-0.22928 -0.0335,3.39617 c 4.30908,-1.84384 8.43261,0.22921 13.0913,0.25098 z"
       style="opacity:1;fill:#999999;fill-opacity:1;stroke-width:0.22682588" />
    <path
       inkscape:connector-curvature="0"
       id="path1329"
       d="m -148.5153,141.42144 c -0.0134,-1.5692 -1.00395,-3.1448 -3.39508,-3.43987 -0.49311,-0.0608 -0.98024,-0.0929 -1.4621,-0.10272 -4.65795,-0.097 -8.82136,1.87039 -13.09296,-0.0828 l -0.0335,3.39616 z"
       style="opacity:1;fill:#999999;fill-opacity:1;stroke-width:0.22682586" />
    <path
       style="opacity:1;fill:#ececec;fill-opacity:1;stroke-width:0.22682588"
       d="m -153.46142,144.67876 c 0.48193,0.003 0.96957,-0.0172 1.46376,-0.0654 2.39635,-0.23404 3.41771,-1.78398 3.46213,-3.35245 l -17.98366,-0.22928 -0.0335,3.39617 c 4.30908,-1.84384 8.43261,0.22921 13.0913,0.25098 z"
       id="path1333"
       inkscape:connector-curvature="0" />
    <path
       style="opacity:1;fill:#ececec;fill-opacity:1;stroke-width:0.22682586"
       d="m -148.53606,141.31486 c -0.0134,-1.5692 -1.00395,-3.1448 -3.39508,-3.43987 -0.49311,-0.0608 -0.98024,-0.0929 -1.4621,-0.10272 -4.65795,-0.097 -8.82136,1.87039 -13.09296,-0.0828 l -0.0335,3.39616 z"
       id="path1335"
       inkscape:connector-curvature="0" />
    <path
       inkscape:connector-curvature="0"
       id="path1339"
       d="m -153.38483,144.30844 c 0.48193,0.003 0.96957,-0.0172 1.46376,-0.0654 2.39635,-0.23404 3.41771,-1.78398 3.46213,-3.35245 l -17.98366,-0.22928 -0.0335,3.39617 c 4.30908,-1.84384 8.43261,0.22921 13.0913,0.25098 z"
       style="opacity:1;fill:#808080;fill-opacity:1;stroke-width:0.22682588" />
    <path
       inkscape:connector-curvature="0"
       id="path1341"
       d="m -148.45947,140.94454 c -0.0134,-1.5692 -1.00395,-3.1448 -3.39508,-3.43987 -0.49311,-0.0608 -0.98024,-0.0929 -1.4621,-0.10272 -4.65795,-0.097 -8.82136,1.87039 -13.09296,-0.0828 l -0.0335,3.39616 z"
       style="opacity:1;fill:#808080;fill-opacity:1;stroke-width:0.22682586" />
    <path
       style="opacity:1;fill:#550000;fill-opacity:1;stroke-width:0.17114937"
       d="m -165.58625,145.72089 c 1.47936,-0.0182 2.78497,-0.31616 2.48876,-0.90616 0.32638,-2.62798 0.15043,-5.06881 0.0745,-7.54682 -0.75498,-1.03831 -3.32694,-1.07079 -4.87964,-0.63247 l -0.0874,8.85219 c 0.68788,0.16424 1.57217,0.24352 2.40376,0.23326 z"
       id="path1347"
       inkscape:connector-curvature="0" />
    <path
       style="opacity:1;fill:#cccccc;fill-opacity:1;stroke-width:0.27241197"
       d="m -165.53551,145.13317 c 0.0488,-0.13727 1.2665,-0.15436 1.2665,-0.15436 1.38146,-0.0579 1.05254,-1.98772 1.04154,-1.67588 0.001,0.30162 0.55468,2.10762 -1.15687,1.93028 -0.67535,-0.07 -1.22232,0.47617 -1.21923,0.16483 z"
       id="path1349"
       inkscape:connector-curvature="0"
       sodipodi:nodetypes="cscscc" />
    <path
       sodipodi:nodetypes="cscscc"
       inkscape:connector-curvature="0"
       id="path1351"
       d="m -165.53551,145.13317 c 0.0488,-0.13727 1.2665,-0.15436 1.2665,-0.15436 1.38146,-0.0579 1.05254,-1.98772 1.04154,-1.67588 0.001,0.30162 0.55468,2.10762 -1.15687,1.93028 -0.67535,-0.07 -1.22232,0.47617 -1.21923,0.16483 z"
       style="opacity:1;fill:#ececec;fill-opacity:1;stroke-width:0.27241197" />
    <path
       style="opacity:1;fill:#ececec;fill-opacity:1;stroke-width:0.27241197"
       d="m -165.49842,136.95694 c 0.0461,0.13848 1.26313,0.18661 1.26313,0.18661 1.37997,0.0931 1.01303,2.01406 1.0082,1.70202 0.007,-0.30152 0.59614,-2.09295 -1.11848,-1.9593 -0.67656,0.0527 -1.21261,-0.50721 -1.21567,-0.19587 z"
       id="path1353"
       inkscape:connector-curvature="0"
       sodipodi:nodetypes="cscscc" />
    <path
       inkscape:connector-curvature="0"
       id="path1479"
       style="font-style:italic;font-variant:normal;font-weight:normal;font-stretch:semi-expanded;font-size:4.23333311px;line-height:1.25;font-family:'Harlow Solid Italic';-inkscape-font-specification:'Harlow Solid Italic, Italic Semi-Expanded';font-variant-ligatures:normal;font-variant-caps:normal;font-variant-numeric:normal;font-feature-settings:normal;text-align:start;letter-spacing:0px;word-spacing:0px;writing-mode:lr-tb;text-anchor:start;fill:#28170b;fill-opacity:1;stroke:none;stroke-width:0.28274244"
       d="m -184.31339,136.9198 h -0.26674 -0.0637 q -0.26438,0 -0.26438,-0.19844 0,-0.12403 0.10858,-0.20877 0.10858,-0.0868 0.26438,-0.0868 h 0.0637 0.95837 q 0.46502,0 0.7176,0.17983 0.25258,0.17777 0.25258,0.5085 0,0.28525 -0.1912,0.51263 -0.18885,0.22738 -0.50752,0.32453 0.43198,0.18396 0.43198,0.63252 0,0.28732 -0.1794,0.5643 -0.17704,0.27492 -0.46975,0.44029 -0.39421,0.22324 -1.1897,0.22324 h -0.347 l -0.0283,0.0579 q -0.16523,0.32039 -0.25965,0.45268 -0.0944,0.13229 -0.24314,0.25218 -0.39421,0.31626 -0.89936,0.31626 -0.41309,0 -0.68219,-0.21497 -0.27146,-0.21498 -0.27146,-0.54777 0,-0.21291 0.11566,-0.39688 0.11567,-0.1819 0.31395,-0.28318 0.2573,-0.13023 0.69872,-0.13023 h 0.82383 z m 0.29978,0.77514 0.14164,-0.002 q 0.33047,0 0.50043,-0.13435 0.0897,-0.0703 0.14871,-0.18191 0.0614,-0.11162 0.0614,-0.2067 0,-0.17157 -0.17232,-0.22738 -0.0685,-0.0227 -0.28326,-0.0227 h -0.0354 z m -0.75064,1.62264 h 0.1912 q 0.50515,0 0.76717,-0.15296 0.1676,-0.0971 0.27146,-0.26665 0.10623,-0.1695 0.10623,-0.34107 0,-0.20257 -0.13927,-0.28525 -0.13691,-0.0827 -0.47919,-0.0827 h -0.19592 z m -0.89228,0.49403 h -0.61374 q -0.46267,0 -0.46267,0.28939 0,0.11575 0.0992,0.19637 0.1015,0.0806 0.2455,0.0806 0.2148,0 0.40837,-0.15089 0.19356,-0.14883 0.32339,-0.41548 z" />
    <path
       inkscape:connector-curvature="0"
       id="path1481"
       style="font-style:italic;font-variant:normal;font-weight:normal;font-stretch:semi-expanded;font-size:4.23333311px;line-height:1.25;font-family:'Harlow Solid Italic';-inkscape-font-specification:'Harlow Solid Italic, Italic Semi-Expanded';font-variant-ligatures:normal;font-variant-caps:normal;font-variant-numeric:normal;font-feature-settings:normal;text-align:start;letter-spacing:0px;word-spacing:0px;writing-mode:lr-tb;text-anchor:start;fill:#28170b;fill-opacity:1;stroke:none;stroke-width:0.28274244"
       d="m -180.93547,138.79668 h 0.25965 q 0.29743,0 0.29743,0.1819 0,0.12609 -0.10623,0.19844 -0.10622,0.0703 -0.2927,0.0703 h -0.30215 q -0.203,0 -0.27618,-0.13849 -0.17704,0.13849 -0.34228,0.13849 h -0.26909 q -0.25966,0 -0.42018,-0.16123 -0.15816,-0.1633 -0.15816,-0.42581 0,-0.39688 0.31159,-0.709 0.31396,-0.3142 0.70816,-0.3142 0.30215,0 0.44142,0.18397 0.11803,-0.15503 0.30923,-0.15503 0.10386,0 0.17232,0.0579 0.0708,0.0579 0.0708,0.14263 0,0.0579 -0.0378,0.13849 l -0.026,0.0558 z m -0.85688,0.0103 h 0.059 q 0.19357,0 0.2573,-0.13849 l 0.16524,-0.35761 q 0.033,-0.0703 0.033,-0.11782 0,-0.0558 -0.0637,-0.0971 -0.0614,-0.0413 -0.14871,-0.0413 -0.17232,0 -0.3352,0.1757 -0.16287,0.1757 -0.16287,0.3638 0,0.21291 0.19592,0.21291 z" />
    <path
       inkscape:connector-curvature="0"
       id="path1483"
       style="font-style:italic;font-variant:normal;font-weight:normal;font-stretch:semi-expanded;font-size:4.23333311px;line-height:1.25;font-family:'Harlow Solid Italic';-inkscape-font-specification:'Harlow Solid Italic, Italic Semi-Expanded';font-variant-ligatures:normal;font-variant-caps:normal;font-variant-numeric:normal;font-feature-settings:normal;text-align:start;letter-spacing:0px;word-spacing:0px;writing-mode:lr-tb;text-anchor:start;fill:#28170b;fill-opacity:1;stroke:none;stroke-width:0.28274244"
       d="m -178.85113,138.37294 0.36589,0.50229 q 0.0685,0.093 0.0685,0.15296 0,0.0951 -0.0921,0.17157 -0.0897,0.0765 -0.20301,0.0765 -0.0991,0 -0.17231,-0.093 l -0.0283,-0.0372 -0.54764,-0.71727 -0.26438,0.57257 q -0.12747,0.27492 -0.37296,0.27492 -0.1015,0 -0.17232,-0.0537 -0.0684,-0.0558 -0.0684,-0.13436 0,-0.06 0.0378,-0.13849 l 0.026,-0.0558 1.01031,-2.18074 0.026,-0.0558 q 0.10858,-0.23151 0.347,-0.23151 0.0991,0 0.16996,0.0579 0.0708,0.0579 0.0708,0.13849 0,0.062 -0.0378,0.14263 l -0.026,0.0558 -0.60194,1.29811 0.53112,-0.3452 q 0.16524,-0.10749 0.28326,-0.10749 0.0992,0 0.16524,0.0558 0.0661,0.0558 0.0661,0.1385 0,0.13849 -0.17468,0.25218 l -0.0543,0.0351 z" />
    <path
       inkscape:connector-curvature="0"
       id="path1485"
       style="font-style:italic;font-variant:normal;font-weight:normal;font-stretch:semi-expanded;font-size:4.23333311px;line-height:1.25;font-family:'Harlow Solid Italic';-inkscape-font-specification:'Harlow Solid Italic, Italic Semi-Expanded';font-variant-ligatures:normal;font-variant-caps:normal;font-variant-numeric:normal;font-feature-settings:normal;text-align:start;letter-spacing:0px;word-spacing:0px;writing-mode:lr-tb;text-anchor:start;fill:#28170b;fill-opacity:1;stroke:none;stroke-width:0.28274244"
       d="m -177.64726,138.64165 q 0,0.15503 0.26674,0.15503 h 0.70108 q 0.29743,0 0.29743,0.18397 0,0.12609 -0.10623,0.19637 -0.10386,0.0703 -0.2927,0.0703 h -0.66803 q -0.37297,0 -0.56889,-0.16123 -0.19356,-0.16123 -0.19356,-0.47129 0,-0.39894 0.30686,-0.68833 0.30923,-0.28939 0.73413,-0.28939 0.30923,0 0.49571,0.14263 0.18884,0.14056 0.18884,0.37207 0,0.27905 -0.25966,0.41341 -0.14399,0.0765 -0.42961,0.0765 z m 0.11331,-0.3762 h 0.25966 q 0.25258,0 0.24549,-0.0971 -0.007,-0.10956 -0.16287,-0.10956 -0.21717,0 -0.34228,0.20671 z" />
    <path
       inkscape:connector-curvature="0"
       id="path1487"
       style="font-style:italic;font-variant:normal;font-weight:normal;font-stretch:semi-expanded;font-size:4.23333311px;line-height:1.25;font-family:'Harlow Solid Italic';-inkscape-font-specification:'Harlow Solid Italic, Italic Semi-Expanded';font-variant-ligatures:normal;font-variant-caps:normal;font-variant-numeric:normal;font-feature-settings:normal;text-align:start;letter-spacing:0px;word-spacing:0px;writing-mode:lr-tb;text-anchor:start;fill:#28170b;fill-opacity:1;stroke:none;stroke-width:0.28274244"
       d="m -175.69746,138.11869 -0.0803,0.17363 q -0.10858,0.23151 -0.28327,0.23151 -0.10623,0 -0.17704,-0.0558 -0.0708,-0.0558 -0.0708,-0.13849 0,-0.0475 0.0519,-0.16123 l 0.26674,-0.57671 q 0.0968,-0.20877 0.27382,-0.20877 0.17468,0 0.21481,0.14469 l 0.0189,0.0641 q 0.0142,0.0496 0.0425,0.062 0.0283,0.0124 0.13927,0.0124 h 0.55237 q 0.30923,0 0.30923,0.19017 0,0.26252 -0.39185,0.26252 l -0.026,0.0207 q -0.37532,0.31419 -0.37532,0.48576 0,0.17156 0.21717,0.17156 h 0.29742 q 0.29979,0 0.29979,0.1819 0,0.12816 -0.10623,0.19844 -0.10386,0.0703 -0.2927,0.0703 h -0.46267 q -0.23605,0 -0.38712,-0.14263 -0.14872,-0.14262 -0.14872,-0.37 0,-0.14469 0.0803,-0.28112 0.0803,-0.13642 0.28327,-0.33486 z" />
    <path
       inkscape:connector-curvature="0"
       id="path1489"
       style="font-style:italic;font-variant:normal;font-weight:normal;font-stretch:semi-expanded;font-size:4.23333311px;line-height:1.25;font-family:'Harlow Solid Italic';-inkscape-font-specification:'Harlow Solid Italic, Italic Semi-Expanded';font-variant-ligatures:normal;font-variant-caps:normal;font-variant-numeric:normal;font-feature-settings:normal;text-align:start;letter-spacing:0px;word-spacing:0px;writing-mode:lr-tb;text-anchor:start;fill:#28170b;fill-opacity:1;stroke:none;stroke-width:0.28274244"
       d="m -172.96632,139.33205 h 0.27382 q 0.29979,0 0.29979,0.18397 0,0.12609 -0.10623,0.19637 -0.10386,0.0703 -0.29271,0.0703 h -0.3824 q -0.0685,0.17777 -0.24786,0.47129 -0.31159,0.51676 -0.90644,0.51676 -0.36116,0 -0.60666,-0.19843 -0.24549,-0.19844 -0.24549,-0.49196 0,-0.20464 0.13455,-0.38241 0.13219,-0.1757 0.34936,-0.26458 0.25021,-0.10129 0.73884,-0.10129 h 0.38477 l 0.0685,-0.14883 q -0.17468,0.0641 -0.32103,0.0641 -0.25258,0 -0.41074,-0.11162 -0.15579,-0.11369 -0.15579,-0.29352 0,-0.10956 0.1015,-0.32866 l 0.25729,-0.55604 0.026,-0.0579 q 0.11331,-0.23358 0.35172,-0.23358 0.10386,0 0.17232,0.0579 0.0708,0.0579 0.0708,0.14676 0,0.0599 -0.0614,0.1943 l -0.23133,0.49403 q -0.0543,0.11989 -0.0566,0.15503 -0.007,0.10129 0.14635,0.10129 0.10858,0 0.22189,-0.0558 0.11331,-0.0558 0.144,-0.12609 l 0.31631,-0.67593 0.0236,-0.0579 q 0.11094,-0.23358 0.35172,-0.23358 0.10386,0 0.17232,0.06 0.0708,0.0579 0.0708,0.14469 0,0.0599 -0.0354,0.13849 l -0.0283,0.0558 z m -0.7719,0.45062 h -0.33047 q -0.54292,0 -0.54292,0.29766 0,0.10542 0.0755,0.16949 0.0732,0.0641 0.19828,0.0641 0.17232,0 0.30451,-0.11782 0.13455,-0.11782 0.29507,-0.41341 z" />
    <path
       inkscape:connector-curvature="0"
       id="path1491"
       style="font-style:italic;font-variant:normal;font-weight:normal;font-stretch:semi-expanded;font-size:4.23333311px;line-height:1.25;font-family:'Harlow Solid Italic';-inkscape-font-specification:'Harlow Solid Italic, Italic Semi-Expanded';font-variant-ligatures:normal;font-variant-caps:normal;font-variant-numeric:normal;font-feature-settings:normal;text-align:start;letter-spacing:0px;word-spacing:0px;writing-mode:lr-tb;text-anchor:start;fill:#28170b;fill-opacity:1;stroke:none;stroke-width:0.28274244"
       d="m -170.72146,136.86605 -0.23369,0.48576 -0.0567,0.11576 q -0.0968,0.19843 -0.26201,0.19843 -0.0897,0 -0.1558,-0.0558 -0.0637,-0.0579 -0.0637,-0.14056 0,-0.0393 0.0118,-0.0806 l 0.0142,-0.0538 0.16288,-0.67386 q 0.0283,-0.11782 0.12039,-0.19017 0.0944,-0.0744 0.21245,-0.0744 0.12983,0 0.21953,0.0744 0.0897,0.0744 0.0897,0.1819 0,0.091 -0.059,0.21291 z" />
    <path
       inkscape:connector-curvature="0"
       id="path1493"
       style="font-style:italic;font-variant:normal;font-weight:normal;font-stretch:semi-expanded;font-size:4.23333311px;line-height:1.25;font-family:'Harlow Solid Italic';-inkscape-font-specification:'Harlow Solid Italic, Italic Semi-Expanded';font-variant-ligatures:normal;font-variant-caps:normal;font-variant-numeric:normal;font-feature-settings:normal;text-align:start;letter-spacing:0px;word-spacing:0px;writing-mode:lr-tb;text-anchor:start;fill:#28170b;fill-opacity:1;stroke:none;stroke-width:0.28274244"
       d="m -170.05343,138.23031 -0.0448,0.0951 q -0.10386,0.20464 -0.29506,0.20464 -0.0968,0 -0.17468,-0.0579 -0.0755,-0.0599 -0.0755,-0.13643 0,-0.0724 0.0685,-0.19224 l 0.31395,-0.5581 q 0.11566,-0.20051 0.28798,-0.20051 0.0921,0 0.15816,0.0538 0.0661,0.0517 0.0661,0.12402 0,0.0186 -0.0142,0.0806 -0.009,0.0455 -0.009,0.0806 0,0.13023 0.11094,0.26665 l 0.13455,0.1633 q 0.20537,0.25011 0.20537,0.48369 0,0.26045 -0.22189,0.43615 -0.22189,0.17363 -0.55237,0.17363 h -0.49335 q -0.29979,0 -0.29979,-0.1819 0,-0.12609 0.10623,-0.19637 0.10623,-0.0724 0.29271,-0.0724 h 0.27382 q 0.32811,0 0.32811,-0.20877 0,-0.0765 -0.0614,-0.17983 z" />
    <path
       inkscape:connector-curvature="0"
       id="path1495"
       style="font-style:italic;font-variant:normal;font-weight:normal;font-stretch:semi-expanded;font-size:4.23333311px;line-height:1.25;font-family:'Harlow Solid Italic';-inkscape-font-specification:'Harlow Solid Italic, Italic Semi-Expanded';font-variant-ligatures:normal;font-variant-caps:normal;font-variant-numeric:normal;font-feature-settings:normal;text-align:start;letter-spacing:0px;word-spacing:0px;writing-mode:lr-tb;text-anchor:start;fill:#28170b;fill-opacity:1;stroke:none;stroke-width:0.28274244"
       d="m -181.89621,142.21146 h -0.26674 -0.0637 q -0.26438,0 -0.26438,-0.19844 0,-0.12402 0.10858,-0.20877 0.10858,-0.0868 0.26438,-0.0868 h 0.0637 0.95838 q 0.46502,0 0.7176,0.17983 0.25257,0.17777 0.25257,0.5085 0,0.28525 -0.1912,0.51263 -0.18884,0.22737 -0.50751,0.32452 0.43198,0.18397 0.43198,0.63252 0,0.28732 -0.17941,0.56431 -0.17704,0.27492 -0.46974,0.44028 -0.39421,0.22324 -1.18971,0.22324 h -0.347 l -0.0283,0.0579 q -0.16524,0.3204 -0.25966,0.45269 -0.0944,0.13229 -0.24313,0.25218 -0.39421,0.31626 -0.89936,0.31626 -0.4131,0 -0.6822,-0.21498 -0.27146,-0.21497 -0.27146,-0.54777 0,-0.2129 0.11567,-0.39687 0.11567,-0.1819 0.31395,-0.28319 0.2573,-0.13022 0.69872,-0.13022 h 0.82382 z m 0.29979,0.77515 0.14163,-0.002 q 0.33047,0 0.50043,-0.13436 0.0897,-0.0703 0.14872,-0.1819 0.0614,-0.11162 0.0614,-0.2067 0,-0.17157 -0.17232,-0.22738 -0.0684,-0.0227 -0.28327,-0.0227 h -0.0354 z m -0.75065,1.62264 h 0.1912 q 0.50516,0 0.76717,-0.15296 0.1676,-0.0972 0.27147,-0.26665 0.10622,-0.1695 0.10622,-0.34107 0,-0.20257 -0.13927,-0.28525 -0.13691,-0.0827 -0.47919,-0.0827 h -0.19592 z m -0.89228,0.49402 h -0.61374 q -0.46266,0 -0.46266,0.28939 0,0.11576 0.0991,0.19637 0.1015,0.0806 0.2455,0.0806 0.21481,0 0.40837,-0.1509 0.19356,-0.14882 0.32339,-0.41548 z" />
    <path
       inkscape:connector-curvature="0"
       id="path1497"
       style="font-style:italic;font-variant:normal;font-weight:normal;font-stretch:semi-expanded;font-size:4.23333311px;line-height:1.25;font-family:'Harlow Solid Italic';-inkscape-font-specification:'Harlow Solid Italic, Italic Semi-Expanded';font-variant-ligatures:normal;font-variant-caps:normal;font-variant-numeric:normal;font-feature-settings:normal;text-align:start;letter-spacing:0px;word-spacing:0px;writing-mode:lr-tb;text-anchor:start;fill:#28170b;fill-opacity:1;stroke:none;stroke-width:0.28274244"
       d="m -179.56401,143.93332 q 0,0.15503 0.26674,0.15503 h 0.70108 q 0.29743,0 0.29743,0.18397 0,0.12609 -0.10623,0.19637 -0.10386,0.0703 -0.29271,0.0703 h -0.66803 q -0.37296,0 -0.56888,-0.16123 -0.19357,-0.16123 -0.19357,-0.47129 0,-0.39894 0.30687,-0.68833 0.30923,-0.28939 0.73413,-0.28939 0.30923,0 0.49571,0.14263 0.18884,0.14056 0.18884,0.37207 0,0.27905 -0.25966,0.41341 -0.14399,0.0765 -0.42961,0.0765 z m 0.11331,-0.3762 h 0.25966 q 0.25258,0 0.24549,-0.0972 -0.007,-0.10955 -0.16287,-0.10955 -0.21717,0 -0.34228,0.20671 z" />
    <path
       inkscape:connector-curvature="0"
       id="path1499"
       style="font-style:italic;font-variant:normal;font-weight:normal;font-stretch:semi-expanded;font-size:4.23333311px;line-height:1.25;font-family:'Harlow Solid Italic';-inkscape-font-specification:'Harlow Solid Italic, Italic Semi-Expanded';font-variant-ligatures:normal;font-variant-caps:normal;font-variant-numeric:normal;font-feature-settings:normal;text-align:start;letter-spacing:0px;word-spacing:0px;writing-mode:lr-tb;text-anchor:start;fill:#28170b;fill-opacity:1;stroke:none;stroke-width:0.28274244"
       d="m -177.41828,143.52198 -0.0448,0.0951 q -0.10386,0.20464 -0.29507,0.20464 -0.0968,0 -0.17468,-0.0579 -0.0755,-0.0599 -0.0755,-0.13642 0,-0.0724 0.0685,-0.19224 l 0.31395,-0.55811 q 0.11567,-0.2005 0.28799,-0.2005 0.0921,0 0.15815,0.0537 0.0661,0.0517 0.0661,0.12403 0,0.0186 -0.0142,0.0806 -0.009,0.0455 -0.009,0.0806 0,0.13022 0.11095,0.26665 l 0.13455,0.16329 q 0.20536,0.25012 0.20536,0.4837 0,0.26045 -0.22189,0.43615 -0.22189,0.17363 -0.55236,0.17363 h -0.49335 q -0.29979,0 -0.29979,-0.1819 0,-0.12609 0.10623,-0.19637 0.10622,-0.0724 0.2927,-0.0724 h 0.27382 q 0.32812,0 0.32812,-0.20877 0,-0.0765 -0.0614,-0.17984 z" />
    <path
       inkscape:connector-curvature="0"
       id="path1501"
       style="font-style:italic;font-variant:normal;font-weight:normal;font-stretch:semi-expanded;font-size:4.23333311px;line-height:1.25;font-family:'Harlow Solid Italic';-inkscape-font-specification:'Harlow Solid Italic, Italic Semi-Expanded';font-variant-ligatures:normal;font-variant-caps:normal;font-variant-numeric:normal;font-feature-settings:normal;text-align:start;letter-spacing:0px;word-spacing:0px;writing-mode:lr-tb;text-anchor:start;fill:#28170b;fill-opacity:1;stroke:none;stroke-width:0.28274244"
       d="m -175.33394,142.95767 h 0.0732 q 0.29979,0 0.29979,0.18397 0,0.12609 -0.10623,0.19637 -0.10622,0.0703 -0.2927,0.0703 h -0.17232 l -0.31631,0.68006 h 0.26438 q 0.29978,0 0.29978,0.18397 0,0.12609 -0.10622,0.19637 -0.10387,0.0703 -0.29271,0.0703 h -0.42254 q -0.1794,0 -0.28562,-0.0724 -0.10386,-0.0724 -0.10386,-0.19637 0,-0.0765 0.0425,-0.1695 l 0.0448,-0.0909 0.27854,-0.60151 h -0.0354 q -0.26438,0 -0.26438,-0.17984 0,-0.12815 0.10386,-0.19843 0.10623,-0.0724 0.29507,-0.0724 h 0.10858 l 0.1251,-0.27079 0.026,-0.0558 q 0.11095,-0.22944 0.34936,-0.22944 0.0968,0 0.16524,0.0579 0.0708,0.0558 0.0708,0.13642 0,0.0786 -0.0614,0.19844 z" />
    <path
       inkscape:connector-curvature="0"
       id="path2678"
       d="m -203.4153,137.13021 c -0.48192,0.003 -0.96934,0.0283 -1.46302,0.0807 -2.39389,0.25399 -3.39989,1.75433 -3.42882,3.26051 h 17.98479 v -3.26051 c -4.29061,1.8227 -8.43434,-0.11683 -13.09295,-0.0807 z"
       style="opacity:1;fill:#808080;fill-opacity:1;stroke-width:0.2222425" />
    <path
       inkscape:connector-curvature="0"
       id="path2680"
       d="m -208.30714,140.4196 c 0.0289,1.50618 1.03493,3.00653 3.42882,3.26051 0.49368,0.0523 0.9811,0.0772 1.46302,0.0807 4.65861,0.0361 8.80234,-1.90341 13.09295,-0.0807 v -3.26051 z"
       style="opacity:1;fill:#808080;fill-opacity:1;stroke-width:0.22224249" />
    <path
       style="opacity:1;fill:#999999;fill-opacity:1;stroke-width:0.2222425"
       d="m -203.4153,137.13021 c -0.48192,0.003 -0.96934,0.0283 -1.46302,0.0807 -2.39389,0.25399 -3.39989,1.75433 -3.42882,3.26051 h 17.98479 v -3.26051 c -4.29061,1.8227 -8.43434,-0.11683 -13.09295,-0.0807 z"
       id="path2684"
       inkscape:connector-curvature="0" />
    <path
       style="opacity:1;fill:#999999;fill-opacity:1;stroke-width:0.22224249"
       d="m -208.30714,140.4196 c 0.0289,1.50618 1.03493,3.00653 3.42882,3.26051 0.49368,0.0523 0.9811,0.0772 1.46302,0.0807 4.65861,0.0361 8.80234,-1.90341 13.09295,-0.0807 v -3.26051 z"
       id="path2686"
       inkscape:connector-curvature="0" />
    <path
       inkscape:connector-curvature="0"
       id="path2690"
       d="m -203.39348,137.23226 c -0.48192,0.003 -0.96934,0.0284 -1.46302,0.0807 -2.39389,0.25399 -3.39989,1.75433 -3.42882,3.26051 h 17.98479 v -3.26051 c -4.29061,1.8227 -8.43434,-0.11683 -13.09295,-0.0807 z"
       style="opacity:1;fill:#ececec;fill-opacity:1;stroke-width:0.2222425" />
    <path
       inkscape:connector-curvature="0"
       id="path2692"
       d="m -208.28532,140.52165 c 0.0289,1.50618 1.03493,3.00653 3.42882,3.26051 0.49368,0.0523 0.9811,0.0772 1.46302,0.0807 4.65861,0.0361 8.80234,-1.90341 13.09295,-0.0807 v -3.26051 z"
       style="opacity:1;fill:#ececec;fill-opacity:1;stroke-width:0.22224249" />
    <path
       style="opacity:1;fill:#808080;fill-opacity:1;stroke-width:0.2222425"
       d="m -203.46642,137.58868 c -0.48192,0.003 -0.96934,0.0284 -1.46302,0.0807 -2.39389,0.254 -3.39989,1.75434 -3.42882,3.26051 h 17.98479 v -3.26051 c -4.29061,1.8227 -8.43434,-0.11682 -13.09295,-0.0807 z"
       id="path2696"
       inkscape:connector-curvature="0" />
    <path
       style="opacity:1;fill:#808080;fill-opacity:1;stroke-width:0.22224249"
       d="m -208.35826,140.87808 c 0.0289,1.50617 1.03493,3.00652 3.42882,3.26051 0.49368,0.0524 0.9811,0.0772 1.46302,0.0807 4.65861,0.0361 8.80234,-1.90341 13.09295,-0.0807 v -3.26051 z"
       id="path2698"
       inkscape:connector-curvature="0" />
    <path
       inkscape:connector-curvature="0"
       id="path2704"
       d="m -191.2797,136.08349 c -1.47909,0.0356 -2.78167,0.33758 -2.47966,0.90032 -0.30042,2.52668 -0.10038,4.86756 0,7.24537 0.76517,0.98747 3.33729,0.98717 4.88557,0.5474 v -8.49859 c -0.68946,-0.14923 -1.57447,-0.21452 -2.40591,-0.1945 z"
       style="opacity:1;fill:#808080;fill-opacity:1;stroke-width:0.16769102" />
    <path
       sodipodi:nodetypes="cscscc"
       inkscape:connector-curvature="0"
       id="path2706"
       d="m -191.32465,136.64829 c -0.0475,0.13237 -1.26489,0.16368 -1.26489,0.16368 -1.3808,0.0724 -1.03285,1.92096 -1.02493,1.62148 -0.004,-0.28952 -0.57545,-2.01639 1.13775,-1.86711 0.67599,0.0589 1.21753,-0.47204 1.21752,-0.17314 z"
       style="opacity:1;fill:#cccccc;fill-opacity:1;stroke-width:0.26690745" />
    <path
       style="opacity:1;fill:#ececec;fill-opacity:1;stroke-width:0.26690745"
       d="m -191.32465,136.64829 c -0.0475,0.13237 -1.26489,0.16368 -1.26489,0.16368 -1.3808,0.0724 -1.03285,1.92096 -1.02493,1.62148 -0.004,-0.28952 -0.57545,-2.01639 1.13775,-1.86711 0.67599,0.0589 1.21753,-0.47204 1.21752,-0.17314 z"
       id="path2708"
       inkscape:connector-curvature="0"
       sodipodi:nodetypes="cscscc" />
    <path
       sodipodi:nodetypes="cscscc"
       inkscape:connector-curvature="0"
       id="path2710"
       d="m -191.28102,144.49739 c -0.0475,-0.13236 -1.26489,-0.16367 -1.26489,-0.16367 -1.3808,-0.0724 -1.03285,-1.92097 -1.02493,-1.62149 -0.004,0.28953 -0.57545,2.01639 1.13775,1.86711 0.67599,-0.0589 1.21753,0.47204 1.21752,0.17314 z"
       style="opacity:1;fill:#ececec;fill-opacity:1;stroke-width:0.26690745" />
    <path
       style="opacity:1;fill:#808080;fill-opacity:1;stroke-width:0.2222425"
       d="m -203.4153,137.13021 c -0.48192,0.003 -0.96934,0.0283 -1.46302,0.0807 -2.39389,0.25399 -3.39989,1.75433 -3.42882,3.26051 h 17.98479 v -3.26051 c -4.29061,1.8227 -8.43434,-0.11683 -13.09295,-0.0807 z"
       id="path2714"
       inkscape:connector-curvature="0" />
    <path
       style="opacity:1;fill:#808080;fill-opacity:1;stroke-width:0.22224249"
       d="m -208.30714,140.4196 c 0.0289,1.50618 1.03493,3.00653 3.42882,3.26051 0.49368,0.0523 0.9811,0.0772 1.46302,0.0807 4.65861,0.0361 8.80234,-1.90341 13.09295,-0.0807 v -3.26051 z"
       id="path2716"
       inkscape:connector-curvature="0" />
    <path
       inkscape:connector-curvature="0"
       id="path2720"
       d="m -203.4153,137.13021 c -0.48192,0.003 -0.96934,0.0283 -1.46302,0.0807 -2.39389,0.25399 -3.39989,1.75433 -3.42882,3.26051 h 17.98479 v -3.26051 c -4.29061,1.8227 -8.43434,-0.11683 -13.09295,-0.0807 z"
       style="opacity:1;fill:#999999;fill-opacity:1;stroke-width:0.2222425" />
    <path
       inkscape:connector-curvature="0"
       id="path2722"
       d="m -208.30714,140.4196 c 0.0289,1.50618 1.03493,3.00653 3.42882,3.26051 0.49368,0.0523 0.9811,0.0772 1.46302,0.0807 4.65861,0.0361 8.80234,-1.90341 13.09295,-0.0807 v -3.26051 z"
       style="opacity:1;fill:#999999;fill-opacity:1;stroke-width:0.22224249" />
    <path
       style="opacity:1;fill:#cccccc;fill-opacity:1;stroke-width:0.2222425"
       d="m -203.39348,137.23226 c -0.48192,0.003 -0.96934,0.0284 -1.46302,0.0807 -2.39389,0.25399 -3.39989,1.75433 -3.42882,3.26051 h 17.98479 v -3.26051 c -4.29061,1.8227 -8.43434,-0.11683 -13.09295,-0.0807 z"
       id="path2726"
       inkscape:connector-curvature="0" />
    <path
       style="opacity:1;fill:#ececec;fill-opacity:1;stroke-width:0.22224249"
       d="m -208.28532,140.52165 c 0.0289,1.50618 1.03493,3.00653 3.42882,3.26051 0.49368,0.0523 0.9811,0.0772 1.46302,0.0807 4.65861,0.0361 8.80234,-1.90341 13.09295,-0.0807 v -3.26051 z"
       id="path2728"
       inkscape:connector-curvature="0" />
    <path
       inkscape:connector-curvature="0"
       id="path2732"
       d="m -203.46642,137.58868 c -0.48192,0.003 -0.96934,0.0284 -1.46302,0.0807 -2.39389,0.254 -3.39989,1.75434 -3.42882,3.26051 h 17.98479 v -3.26051 c -4.29061,1.8227 -8.43434,-0.11682 -13.09295,-0.0807 z"
       style="opacity:1;fill:#550000;fill-opacity:1;stroke-width:0.2222425" />
    <path
       inkscape:connector-curvature="0"
       id="path2734"
       d="m -208.35826,140.87808 c 0.0289,1.50617 1.03493,3.00652 3.42882,3.26051 0.49368,0.0524 0.9811,0.0772 1.46302,0.0807 4.65861,0.0361 8.80234,-1.90341 13.09295,-0.0807 v -3.26051 z"
       style="opacity:1;fill:#550000;fill-opacity:1;stroke-width:0.22224249" />
    <path
       style="opacity:1;fill:#550000;fill-opacity:1;stroke-width:0.16769102"
       d="m -191.2797,136.08349 c -1.47909,0.0356 -2.78167,0.33758 -2.47966,0.90032 -0.30042,2.52668 -0.10038,4.86756 0,7.24537 0.76517,0.98747 3.33729,0.98717 4.88557,0.5474 v -8.49859 c -0.68946,-0.14923 -1.57447,-0.21452 -2.40591,-0.1945 z"
       id="path2740"
       inkscape:connector-curvature="0" />
    <path
       style="opacity:1;fill:#cccccc;fill-opacity:1;stroke-width:0.26690745"
       d="m -191.32465,136.64829 c -0.0475,0.13237 -1.26489,0.16368 -1.26489,0.16368 -1.3808,0.0724 -1.03285,1.92096 -1.02493,1.62148 -0.004,-0.28952 -0.57545,-2.01639 1.13775,-1.86711 0.67599,0.0589 1.21753,-0.47204 1.21752,-0.17314 z"
       id="path2742"
       inkscape:connector-curvature="0"
       sodipodi:nodetypes="cscscc" />
    <path
       sodipodi:nodetypes="cscscc"
       inkscape:connector-curvature="0"
       id="path2744"
       d="m -191.32465,136.64829 c -0.0475,0.13237 -1.26489,0.16368 -1.26489,0.16368 -1.3808,0.0724 -1.03285,1.92096 -1.02493,1.62148 -0.004,-0.28952 -0.57545,-2.01639 1.13775,-1.86711 0.67599,0.0589 1.21753,-0.47204 1.21752,-0.17314 z"
       style="opacity:1;fill:#cccccc;fill-opacity:1;stroke-width:0.26690745" />
    <path
       style="opacity:1;fill:#cccccc;fill-opacity:1;stroke-width:0.26690745"
       d="m -191.28102,144.49739 c -0.0475,-0.13236 -1.26489,-0.16367 -1.26489,-0.16367 -1.3808,-0.0724 -1.03285,-1.92097 -1.02493,-1.62149 -0.004,0.28953 -0.57545,2.01639 1.13775,1.86711 0.67599,-0.0589 1.21753,0.47204 1.21752,0.17314 z"
       id="path2746"
       inkscape:connector-curvature="0"
       sodipodi:nodetypes="cscscc" />
    <path
       inkscape:connector-curvature="0"
       id="path2752"
       d="m -152.31813,144.78535 c 0.48193,0.003 0.96957,-0.0172 1.46376,-0.0654 2.39635,-0.23404 3.41771,-1.78398 3.46213,-3.35245 l -17.98366,-0.22928 -0.0335,3.39617 c 4.30908,-1.84384 8.43261,0.22921 13.0913,0.25098 z"
       style="opacity:1;fill:#808080;fill-opacity:1;stroke-width:0.22682588" />
    <path
       inkscape:connector-curvature="0"
       id="path2754"
       d="m -147.39277,141.42145 c -0.0134,-1.5692 -1.00395,-3.1448 -3.39508,-3.43987 -0.49311,-0.0608 -0.98024,-0.0929 -1.4621,-0.10272 -4.65795,-0.097 -8.82136,1.87039 -13.09296,-0.0828 l -0.0335,3.39616 z"
       style="opacity:1;fill:#808080;fill-opacity:1;stroke-width:0.22682586" />
    <path
       style="opacity:1;fill:#999999;fill-opacity:1;stroke-width:0.22682588"
       d="m -152.31813,144.78535 c 0.48193,0.003 0.96957,-0.0172 1.46376,-0.0654 2.39635,-0.23404 3.41771,-1.78398 3.46213,-3.35245 l -17.98366,-0.22928 -0.0335,3.39617 c 4.30908,-1.84384 8.43261,0.22921 13.0913,0.25098 z"
       id="path2758"
       inkscape:connector-curvature="0" />
    <path
       style="opacity:1;fill:#999999;fill-opacity:1;stroke-width:0.22682586"
       d="m -147.39277,141.42145 c -0.0134,-1.5692 -1.00395,-3.1448 -3.39508,-3.43987 -0.49311,-0.0608 -0.98024,-0.0929 -1.4621,-0.10272 -4.65795,-0.097 -8.82136,1.87039 -13.09296,-0.0828 l -0.0335,3.39616 z"
       id="path2760"
       inkscape:connector-curvature="0" />
    <path
       inkscape:connector-curvature="0"
       id="path2764"
       d="m -152.33889,144.67877 c 0.48193,0.003 0.96957,-0.0172 1.46376,-0.0654 2.39635,-0.23404 3.41771,-1.78398 3.46213,-3.35245 l -17.98366,-0.22928 -0.0335,3.39617 c 4.30908,-1.84384 8.43261,0.22921 13.0913,0.25098 z"
       style="opacity:1;fill:#ececec;fill-opacity:1;stroke-width:0.22682588" />
    <path
       inkscape:connector-curvature="0"
       id="path2766"
       d="m -147.41353,141.31487 c -0.0134,-1.5692 -1.00395,-3.1448 -3.39508,-3.43987 -0.49311,-0.0608 -0.98024,-0.0929 -1.4621,-0.10272 -4.65795,-0.097 -8.82136,1.87039 -13.09296,-0.0828 l -0.0335,3.39616 z"
       style="opacity:1;fill:#ececec;fill-opacity:1;stroke-width:0.22682586" />
    <path
       style="opacity:1;fill:#808080;fill-opacity:1;stroke-width:0.22682588"
       d="m -152.2623,144.30845 c 0.48193,0.003 0.96957,-0.0172 1.46376,-0.0654 2.39635,-0.23404 3.41771,-1.78398 3.46213,-3.35245 l -17.98366,-0.22928 -0.0335,3.39617 c 4.30908,-1.84384 8.43261,0.22921 13.0913,0.25098 z"
       id="path2770"
       inkscape:connector-curvature="0" />
    <path
       style="opacity:1;fill:#808080;fill-opacity:1;stroke-width:0.22682586"
       d="m -147.33694,140.94455 c -0.0134,-1.5692 -1.00395,-3.1448 -3.39508,-3.43987 -0.49311,-0.0608 -0.98024,-0.0929 -1.4621,-0.10272 -4.65795,-0.097 -8.82136,1.87039 -13.09296,-0.0828 l -0.0335,3.39616 z"
       id="path2772"
       inkscape:connector-curvature="0" />
    <path
       inkscape:connector-curvature="0"
       id="path2778"
       d="m -164.46372,145.7209 c 1.47936,-0.0182 2.78497,-0.31616 2.48876,-0.90616 0.32638,-2.62798 0.15043,-5.06881 0.0745,-7.54682 -0.75498,-1.03831 -3.32694,-1.07079 -4.87964,-0.63247 l -0.0874,8.85219 c 0.68788,0.16424 1.57217,0.24352 2.40376,0.23326 z"
       style="opacity:1;fill:#808080;fill-opacity:1;stroke-width:0.17114937" />
    <path
       sodipodi:nodetypes="cscscc"
       inkscape:connector-curvature="0"
       id="path2780"
       d="m -164.41298,145.13318 c 0.0488,-0.13727 1.2665,-0.15436 1.2665,-0.15436 1.38146,-0.0579 1.05254,-1.98772 1.04154,-1.67588 0.001,0.30162 0.55468,2.10762 -1.15687,1.93028 -0.67535,-0.07 -1.22232,0.47617 -1.21923,0.16483 z"
       style="opacity:1;fill:#cccccc;fill-opacity:1;stroke-width:0.27241197" />
    <path
       style="opacity:1;fill:#ececec;fill-opacity:1;stroke-width:0.27241197"
       d="m -164.41298,145.13318 c 0.0488,-0.13727 1.2665,-0.15436 1.2665,-0.15436 1.38146,-0.0579 1.05254,-1.98772 1.04154,-1.67588 0.001,0.30162 0.55468,2.10762 -1.15687,1.93028 -0.67535,-0.07 -1.22232,0.47617 -1.21923,0.16483 z"
       id="path2782"
       inkscape:connector-curvature="0"
       sodipodi:nodetypes="cscscc" />
    <path
       sodipodi:nodetypes="cscscc"
       inkscape:connector-curvature="0"
       id="path2784"
       d="m -164.37589,136.95695 c 0.0461,0.13848 1.26313,0.18661 1.26313,0.18661 1.37997,0.0931 1.01303,2.01406 1.0082,1.70202 0.007,-0.30152 0.59614,-2.09295 -1.11848,-1.9593 -0.67656,0.0527 -1.21261,-0.50721 -1.21567,-0.19587 z"
       style="opacity:1;fill:#ececec;fill-opacity:1;stroke-width:0.27241197" />
    <path
       inkscape:connector-curvature="0"
       id="path2788"
       d="m -152.31813,144.78534 c 0.48193,0.003 0.96957,-0.0172 1.46376,-0.0654 2.39635,-0.23404 3.41771,-1.78398 3.46213,-3.35245 l -17.98366,-0.22928 -0.0335,3.39617 c 4.30908,-1.84384 8.43261,0.22921 13.0913,0.25098 z"
       style="opacity:1;fill:#808080;fill-opacity:1;stroke-width:0.22682588" />
    <path
       inkscape:connector-curvature="0"
       id="path2790"
       d="m -147.39277,141.42144 c -0.0134,-1.5692 -1.00395,-3.1448 -3.39508,-3.43987 -0.49311,-0.0608 -0.98024,-0.0929 -1.4621,-0.10272 -4.65795,-0.097 -8.82136,1.87039 -13.09296,-0.0828 l -0.0335,3.39616 z"
       style="opacity:1;fill:#808080;fill-opacity:1;stroke-width:0.22682586" />
    <path
       style="opacity:1;fill:#999999;fill-opacity:1;stroke-width:0.22682588"
       d="m -152.31813,144.78534 c 0.48193,0.003 0.96957,-0.0172 1.46376,-0.0654 2.39635,-0.23404 3.41771,-1.78398 3.46213,-3.35245 l -17.98366,-0.22928 -0.0335,3.39617 c 4.30908,-1.84384 8.43261,0.22921 13.0913,0.25098 z"
       id="path2794"
       inkscape:connector-curvature="0" />
    <path
       style="opacity:1;fill:#999999;fill-opacity:1;stroke-width:0.22682586"
       d="m -147.39277,141.42144 c -0.0134,-1.5692 -1.00395,-3.1448 -3.39508,-3.43987 -0.49311,-0.0608 -0.98024,-0.0929 -1.4621,-0.10272 -4.65795,-0.097 -8.82136,1.87039 -13.09296,-0.0828 l -0.0335,3.39616 z"
       id="path2796"
       inkscape:connector-curvature="0" />
    <path
       inkscape:connector-curvature="0"
       id="path2800"
       d="m -152.33889,144.67876 c 0.48193,0.003 0.96957,-0.0172 1.46376,-0.0654 2.39635,-0.23404 3.41771,-1.78398 3.46213,-3.35245 l -17.98366,-0.22928 -0.0335,3.39617 c 4.30908,-1.84384 8.43261,0.22921 13.0913,0.25098 z"
       style="opacity:1;fill:#cccccc;fill-opacity:1;stroke-width:0.22682588" />
    <path
       inkscape:connector-curvature="0"
       id="path2802"
       d="m -147.41353,141.31486 c -0.0134,-1.5692 -1.00395,-3.1448 -3.39508,-3.43987 -0.49311,-0.0608 -0.98024,-0.0929 -1.4621,-0.10272 -4.65795,-0.097 -8.82136,1.87039 -13.09296,-0.0828 l -0.0335,3.39616 z"
       style="opacity:1;fill:#ececec;fill-opacity:1;stroke-width:0.22682586" />
    <path
       style="opacity:1;fill:#550000;fill-opacity:1;stroke-width:0.22682588"
       d="m -152.2623,144.30844 c 0.48193,0.003 0.96957,-0.0172 1.46376,-0.0654 2.39635,-0.23404 3.41771,-1.78398 3.46213,-3.35245 l -17.98366,-0.22928 -0.0335,3.39617 c 4.30908,-1.84384 8.43261,0.22921 13.0913,0.25098 z"
       id="path2806"
       inkscape:connector-curvature="0" />
    <path
       style="opacity:1;fill:#550000;fill-opacity:1;stroke-width:0.22682586"
       d="m -147.33694,140.94454 c -0.0134,-1.5692 -1.00395,-3.1448 -3.39508,-3.43987 -0.49311,-0.0608 -0.98024,-0.0929 -1.4621,-0.10272 -4.65795,-0.097 -8.82136,1.87039 -13.09296,-0.0828 l -0.0335,3.39616 z"
       id="path2808"
       inkscape:connector-curvature="0" />
    <path
       inkscape:connector-curvature="0"
       id="path2814"
       d="m -164.46372,145.72089 c 1.47936,-0.0182 2.78497,-0.31616 2.48876,-0.90616 0.32638,-2.62798 0.15043,-5.06881 0.0745,-7.54682 -0.75498,-1.03831 -3.32694,-1.07079 -4.87964,-0.63247 l -0.0874,8.85219 c 0.68788,0.16424 1.57217,0.24352 2.40376,0.23326 z"
       style="opacity:1;fill:#550000;fill-opacity:1;stroke-width:0.17114937" />
    <path
       sodipodi:nodetypes="cscscc"
       inkscape:connector-curvature="0"
       id="path2816"
       d="m -164.41298,145.13317 c 0.0488,-0.13727 1.2665,-0.15436 1.2665,-0.15436 1.38146,-0.0579 1.05254,-1.98772 1.04154,-1.67588 0.001,0.30162 0.55468,2.10762 -1.15687,1.93028 -0.67535,-0.07 -1.22232,0.47617 -1.21923,0.16483 z"
       style="opacity:1;fill:#cccccc;fill-opacity:1;stroke-width:0.27241197" />
    <path
       style="opacity:1;fill:#cccccc;fill-opacity:1;stroke-width:0.27241197"
       d="m -164.41298,145.13317 c 0.0488,-0.13727 1.2665,-0.15436 1.2665,-0.15436 1.38146,-0.0579 1.05254,-1.98772 1.04154,-1.67588 0.001,0.30162 0.55468,2.10762 -1.15687,1.93028 -0.67535,-0.07 -1.22232,0.47617 -1.21923,0.16483 z"
       id="path2818"
       inkscape:connector-curvature="0"
       sodipodi:nodetypes="cscscc" />
    <path
       sodipodi:nodetypes="cscscc"
       inkscape:connector-curvature="0"
       id="path2820"
       d="m -164.37589,136.95694 c 0.0461,0.13848 1.26313,0.18661 1.26313,0.18661 1.37997,0.0931 1.01303,2.01406 1.0082,1.70202 0.007,-0.30152 0.59614,-2.09295 -1.11848,-1.9593 -0.67656,0.0527 -1.21261,-0.50721 -1.21567,-0.19587 z"
       style="opacity:1;fill:#cccccc;fill-opacity:1;stroke-width:0.27241197" />
    <path
       d="m -184.31339,137.10688 h -0.26674 -0.0637 q -0.26438,0 -0.26438,-0.19844 0,-0.12403 0.10858,-0.20876 0.10858,-0.0868 0.26438,-0.0868 h 0.0637 0.95837 q 0.46502,0 0.7176,0.17983 0.25258,0.17778 0.25258,0.5085 0,0.28525 -0.1912,0.51263 -0.18885,0.22739 -0.50752,0.32454 0.43198,0.18396 0.43198,0.63252 0,0.28732 -0.1794,0.5643 -0.17704,0.27492 -0.46975,0.44029 -0.39421,0.22324 -1.1897,0.22324 h -0.347 l -0.0283,0.0579 q -0.16524,0.32039 -0.25966,0.45267 -0.0944,0.1323 -0.24314,0.25219 -0.3942,0.31626 -0.89936,0.31626 -0.41309,0 -0.68219,-0.21497 -0.27146,-0.21498 -0.27146,-0.54778 0,-0.2129 0.11566,-0.39688 0.11567,-0.1819 0.31396,-0.28317 0.25729,-0.13024 0.69871,-0.13024 h 0.82383 z m 0.29979,0.77514 0.14163,-0.002 q 0.33047,0 0.50043,-0.13435 0.0897,-0.0703 0.14871,-0.18191 0.0614,-0.11162 0.0614,-0.2067 0,-0.17157 -0.17232,-0.22738 -0.0685,-0.0227 -0.28326,-0.0227 h -0.0354 z m -0.75065,1.62264 h 0.1912 q 0.50515,0 0.76717,-0.15296 0.1676,-0.0971 0.27146,-0.26665 0.10623,-0.1695 0.10623,-0.34107 0,-0.20257 -0.13927,-0.28525 -0.13691,-0.0827 -0.47919,-0.0827 h -0.19592 z m -0.89228,0.49403 h -0.61374 q -0.46267,0 -0.46267,0.28939 0,0.11575 0.0992,0.19637 0.1015,0.0806 0.2455,0.0806 0.21481,0 0.40837,-0.15089 0.19356,-0.14883 0.32339,-0.41548 z"
       style="font-style:italic;font-variant:normal;font-weight:normal;font-stretch:semi-expanded;font-size:4.23333311px;line-height:1.25;font-family:'Harlow Solid Italic';-inkscape-font-specification:'Harlow Solid Italic, Italic Semi-Expanded';font-variant-ligatures:normal;font-variant-caps:normal;font-variant-numeric:normal;font-feature-settings:normal;text-align:start;letter-spacing:0px;word-spacing:0px;writing-mode:lr-tb;text-anchor:start;fill:#28170b;fill-opacity:1;stroke:none;stroke-width:0.28274244"
       id="path2828"
       inkscape:connector-curvature="0" />
    <path
       d="m -180.93547,138.98376 h 0.25966 q 0.29742,0 0.29742,0.18191 0,0.12609 -0.10622,0.19844 -0.10623,0.0703 -0.29271,0.0703 h -0.30215 q -0.203,0 -0.27618,-0.13849 -0.17704,0.13849 -0.34228,0.13849 h -0.26909 q -0.25966,0 -0.42018,-0.16123 -0.15816,-0.1633 -0.15816,-0.42581 0,-0.39688 0.3116,-0.709 0.31395,-0.3142 0.70815,-0.3142 0.30215,0 0.44142,0.18396 0.11803,-0.15503 0.30923,-0.15503 0.10387,0 0.17232,0.0579 0.0708,0.0579 0.0708,0.14263 0,0.0579 -0.0378,0.13849 l -0.026,0.0558 z m -0.85688,0.0103 h 0.059 q 0.19357,0 0.2573,-0.13848 l 0.16524,-0.35761 q 0.0331,-0.0703 0.0331,-0.11782 0,-0.0558 -0.0637,-0.0971 -0.0614,-0.0413 -0.14871,-0.0413 -0.17232,0 -0.3352,0.17571 -0.16288,0.1757 -0.16288,0.3638 0,0.2129 0.19593,0.2129 z"
       style="font-style:italic;font-variant:normal;font-weight:normal;font-stretch:semi-expanded;font-size:4.23333311px;line-height:1.25;font-family:'Harlow Solid Italic';-inkscape-font-specification:'Harlow Solid Italic, Italic Semi-Expanded';font-variant-ligatures:normal;font-variant-caps:normal;font-variant-numeric:normal;font-feature-settings:normal;text-align:start;letter-spacing:0px;word-spacing:0px;writing-mode:lr-tb;text-anchor:start;fill:#28170b;fill-opacity:1;stroke:none;stroke-width:0.28274244"
       id="path2830"
       inkscape:connector-curvature="0" />
    <path
       d="m -178.85113,138.56003 0.36589,0.50228 q 0.0685,0.093 0.0685,0.15297 0,0.0951 -0.0921,0.17157 -0.0897,0.0765 -0.20301,0.0765 -0.0992,0 -0.17232,-0.093 l -0.0283,-0.0372 -0.54764,-0.71727 -0.26438,0.57257 q -0.12747,0.27492 -0.37296,0.27492 -0.1015,0 -0.17232,-0.0537 -0.0684,-0.0558 -0.0684,-0.13436 0,-0.06 0.0378,-0.13849 l 0.026,-0.0558 1.01031,-2.18074 0.026,-0.0558 q 0.10857,-0.23151 0.34699,-0.23151 0.0991,0 0.16996,0.0579 0.0708,0.0579 0.0708,0.13849 0,0.062 -0.0378,0.14263 l -0.026,0.0558 -0.60193,1.29811 0.53111,-0.3452 q 0.16524,-0.10749 0.28327,-0.10749 0.0992,0 0.16523,0.0558 0.0661,0.0558 0.0661,0.1385 0,0.13849 -0.17467,0.25218 l -0.0543,0.0351 z"
       style="font-style:italic;font-variant:normal;font-weight:normal;font-stretch:semi-expanded;font-size:4.23333311px;line-height:1.25;font-family:'Harlow Solid Italic';-inkscape-font-specification:'Harlow Solid Italic, Italic Semi-Expanded';font-variant-ligatures:normal;font-variant-caps:normal;font-variant-numeric:normal;font-feature-settings:normal;text-align:start;letter-spacing:0px;word-spacing:0px;writing-mode:lr-tb;text-anchor:start;fill:#28170b;fill-opacity:1;stroke:none;stroke-width:0.28274244"
       id="path2832"
       inkscape:connector-curvature="0" />
    <path
       d="m -177.64726,138.82874 q 0,0.15503 0.26675,0.15503 h 0.70107 q 0.29743,0 0.29743,0.18397 0,0.12609 -0.10623,0.19637 -0.10386,0.0703 -0.2927,0.0703 h -0.66803 q -0.37297,0 -0.56889,-0.16123 -0.19356,-0.16123 -0.19356,-0.47129 0,-0.39894 0.30687,-0.68833 0.30922,-0.28939 0.73412,-0.28939 0.30923,0 0.49571,0.14263 0.18884,0.14055 0.18884,0.37207 0,0.27905 -0.25965,0.41341 -0.144,0.0765 -0.42962,0.0765 z m 0.11331,-0.37621 h 0.25966 q 0.25258,0 0.24549,-0.0971 -0.007,-0.10956 -0.16287,-0.10956 -0.21717,0 -0.34228,0.20671 z"
       style="font-style:italic;font-variant:normal;font-weight:normal;font-stretch:semi-expanded;font-size:4.23333311px;line-height:1.25;font-family:'Harlow Solid Italic';-inkscape-font-specification:'Harlow Solid Italic, Italic Semi-Expanded';font-variant-ligatures:normal;font-variant-caps:normal;font-variant-numeric:normal;font-feature-settings:normal;text-align:start;letter-spacing:0px;word-spacing:0px;writing-mode:lr-tb;text-anchor:start;fill:#28170b;fill-opacity:1;stroke:none;stroke-width:0.28274244"
       id="path2834"
       inkscape:connector-curvature="0" />
    <path
       d="m -175.69746,138.30577 -0.0803,0.17364 q -0.10858,0.2315 -0.28326,0.2315 -0.10623,0 -0.17704,-0.0558 -0.0708,-0.0558 -0.0708,-0.13849 0,-0.0475 0.0519,-0.16122 l 0.26674,-0.57671 q 0.0968,-0.20877 0.27382,-0.20877 0.17468,0 0.21481,0.14469 l 0.0189,0.0641 q 0.0142,0.0496 0.0425,0.062 0.0283,0.0124 0.13927,0.0124 h 0.55237 q 0.30922,0 0.30922,0.19017 0,0.26252 -0.39184,0.26252 l -0.026,0.0207 q -0.37533,0.31419 -0.37533,0.48576 0,0.17156 0.21717,0.17156 h 0.29743 q 0.29979,0 0.29979,0.1819 0,0.12816 -0.10623,0.19844 -0.10386,0.0703 -0.29271,0.0703 h -0.46266 q -0.23605,0 -0.38713,-0.14263 -0.14871,-0.14262 -0.14871,-0.37 0,-0.14469 0.0803,-0.28112 0.0803,-0.13642 0.28326,-0.33486 z"
       style="font-style:italic;font-variant:normal;font-weight:normal;font-stretch:semi-expanded;font-size:4.23333311px;line-height:1.25;font-family:'Harlow Solid Italic';-inkscape-font-specification:'Harlow Solid Italic, Italic Semi-Expanded';font-variant-ligatures:normal;font-variant-caps:normal;font-variant-numeric:normal;font-feature-settings:normal;text-align:start;letter-spacing:0px;word-spacing:0px;writing-mode:lr-tb;text-anchor:start;fill:#28170b;fill-opacity:1;stroke:none;stroke-width:0.28274244"
       id="path2836"
       inkscape:connector-curvature="0" />
    <path
       d="m -172.96632,139.51913 h 0.27382 q 0.29979,0 0.29979,0.18397 0,0.12609 -0.10623,0.19637 -0.10386,0.0703 -0.29271,0.0703 h -0.3824 q -0.0685,0.17777 -0.24786,0.47129 -0.31159,0.51677 -0.90644,0.51677 -0.36116,0 -0.60666,-0.19844 -0.24549,-0.19844 -0.24549,-0.49196 0,-0.20464 0.13455,-0.3824 0.13219,-0.17571 0.34936,-0.26458 0.25021,-0.1013 0.73884,-0.1013 h 0.38477 l 0.0685,-0.14883 q -0.17468,0.0641 -0.32104,0.0641 -0.25257,0 -0.41073,-0.11161 -0.15579,-0.11369 -0.15579,-0.29352 0,-0.10956 0.1015,-0.32867 l 0.25729,-0.55604 0.026,-0.0579 q 0.11331,-0.23358 0.35172,-0.23358 0.10387,0 0.17232,0.0579 0.0708,0.0579 0.0708,0.14676 0,0.0599 -0.0614,0.1943 l -0.23133,0.49403 q -0.0543,0.11989 -0.0566,0.15503 -0.007,0.10129 0.14635,0.10129 0.10858,0 0.22189,-0.0558 0.11331,-0.0558 0.144,-0.12609 l 0.31631,-0.67593 0.0236,-0.0579 q 0.11094,-0.23358 0.35172,-0.23358 0.10386,0 0.17231,0.06 0.0708,0.0579 0.0708,0.14469 0,0.0599 -0.0354,0.13849 l -0.0283,0.0558 z m -0.7719,0.45062 h -0.33047 q -0.54292,0 -0.54292,0.29766 0,0.10542 0.0755,0.16949 0.0732,0.0641 0.19828,0.0641 0.17232,0 0.30451,-0.11782 0.13455,-0.11782 0.29507,-0.41341 z"
       style="font-style:italic;font-variant:normal;font-weight:normal;font-stretch:semi-expanded;font-size:4.23333311px;line-height:1.25;font-family:'Harlow Solid Italic';-inkscape-font-specification:'Harlow Solid Italic, Italic Semi-Expanded';font-variant-ligatures:normal;font-variant-caps:normal;font-variant-numeric:normal;font-feature-settings:normal;text-align:start;letter-spacing:0px;word-spacing:0px;writing-mode:lr-tb;text-anchor:start;fill:#28170b;fill-opacity:1;stroke:none;stroke-width:0.28274244"
       id="path2838"
       inkscape:connector-curvature="0" />
    <path
       d="m -170.72146,137.05313 -0.23369,0.48576 -0.0566,0.11576 q -0.0968,0.19843 -0.26202,0.19843 -0.0897,0 -0.1558,-0.0558 -0.0637,-0.0579 -0.0637,-0.14056 0,-0.0393 0.0118,-0.0806 l 0.0142,-0.0538 0.16288,-0.67386 q 0.0283,-0.11782 0.12039,-0.19017 0.0944,-0.0744 0.21245,-0.0744 0.12983,0 0.21953,0.0744 0.0897,0.0744 0.0897,0.18191 0,0.091 -0.059,0.21291 z"
       style="font-style:italic;font-variant:normal;font-weight:normal;font-stretch:semi-expanded;font-size:4.23333311px;line-height:1.25;font-family:'Harlow Solid Italic';-inkscape-font-specification:'Harlow Solid Italic, Italic Semi-Expanded';font-variant-ligatures:normal;font-variant-caps:normal;font-variant-numeric:normal;font-feature-settings:normal;text-align:start;letter-spacing:0px;word-spacing:0px;writing-mode:lr-tb;text-anchor:start;fill:#28170b;fill-opacity:1;stroke:none;stroke-width:0.28274244"
       id="path2840"
       inkscape:connector-curvature="0" />
    <path
       d="m -170.05343,138.41739 -0.0448,0.0951 q -0.10386,0.20465 -0.29507,0.20465 -0.0968,0 -0.17467,-0.0579 -0.0755,-0.0599 -0.0755,-0.13643 0,-0.0724 0.0685,-0.19224 l 0.31395,-0.5581 q 0.11566,-0.20051 0.28798,-0.20051 0.0921,0 0.15816,0.0538 0.0661,0.0517 0.0661,0.12402 0,0.0186 -0.0142,0.0806 -0.01,0.0455 -0.01,0.0806 0,0.13023 0.11094,0.26665 l 0.13455,0.1633 q 0.20536,0.25011 0.20536,0.48369 0,0.26045 -0.22189,0.43615 -0.22189,0.17363 -0.55236,0.17363 h -0.49335 q -0.29979,0 -0.29979,-0.18191 0,-0.12609 0.10623,-0.19637 0.10623,-0.0724 0.2927,-0.0724 h 0.27383 q 0.32811,0 0.32811,-0.20877 0,-0.0765 -0.0614,-0.17983 z"
       style="font-style:italic;font-variant:normal;font-weight:normal;font-stretch:semi-expanded;font-size:4.23333311px;line-height:1.25;font-family:'Harlow Solid Italic';-inkscape-font-specification:'Harlow Solid Italic, Italic Semi-Expanded';font-variant-ligatures:normal;font-variant-caps:normal;font-variant-numeric:normal;font-feature-settings:normal;text-align:start;letter-spacing:0px;word-spacing:0px;writing-mode:lr-tb;text-anchor:start;fill:#28170b;fill-opacity:1;stroke:none;stroke-width:0.28274244"
       id="path2842"
       inkscape:connector-curvature="0" />
    <path
       d="m -181.89621,142.39855 h -0.26674 -0.0637 q -0.26438,0 -0.26438,-0.19845 0,-0.12402 0.10858,-0.20876 0.10858,-0.0868 0.26438,-0.0868 h 0.0637 0.95838 q 0.46502,0 0.7176,0.17984 0.25257,0.17777 0.25257,0.5085 0,0.28524 -0.1912,0.51263 -0.18884,0.22737 -0.50751,0.32452 0.43198,0.18397 0.43198,0.63252 0,0.28732 -0.17941,0.56431 -0.17703,0.27492 -0.46974,0.44028 -0.39421,0.22324 -1.18971,0.22324 h -0.347 l -0.0283,0.0579 q -0.16523,0.3204 -0.25965,0.45269 -0.0944,0.13229 -0.24314,0.25218 -0.39421,0.31626 -0.89936,0.31626 -0.41309,0 -0.68219,-0.21498 -0.27146,-0.21497 -0.27146,-0.54777 0,-0.2129 0.11566,-0.39688 0.11567,-0.1819 0.31395,-0.28318 0.2573,-0.13023 0.69872,-0.13023 h 0.82382 z m 0.29979,0.77514 0.14163,-0.002 q 0.33047,0 0.50043,-0.13435 0.0897,-0.0703 0.14872,-0.18191 0.0614,-0.11162 0.0614,-0.2067 0,-0.17157 -0.17232,-0.22738 -0.0684,-0.0227 -0.28327,-0.0227 h -0.0354 z m -0.75065,1.62264 h 0.1912 q 0.50516,0 0.76718,-0.15296 0.16759,-0.0972 0.27146,-0.26665 0.10622,-0.1695 0.10622,-0.34107 0,-0.20257 -0.13927,-0.28525 -0.13691,-0.0827 -0.47919,-0.0827 h -0.19592 z m -0.89228,0.49402 h -0.61374 q -0.46266,0 -0.46266,0.28939 0,0.11576 0.0992,0.19637 0.1015,0.0806 0.24549,0.0806 0.21481,0 0.40837,-0.1509 0.19357,-0.14882 0.3234,-0.41548 z"
       style="font-style:italic;font-variant:normal;font-weight:normal;font-stretch:semi-expanded;font-size:4.23333311px;line-height:1.25;font-family:'Harlow Solid Italic';-inkscape-font-specification:'Harlow Solid Italic, Italic Semi-Expanded';font-variant-ligatures:normal;font-variant-caps:normal;font-variant-numeric:normal;font-feature-settings:normal;text-align:start;letter-spacing:0px;word-spacing:0px;writing-mode:lr-tb;text-anchor:start;fill:#28170b;fill-opacity:1;stroke:none;stroke-width:0.28274244"
       id="path2844"
       inkscape:connector-curvature="0" />
    <path
       d="m -179.56401,144.1204 q 0,0.15504 0.26674,0.15504 h 0.70108 q 0.29743,0 0.29743,0.18396 0,0.12609 -0.10623,0.19637 -0.10386,0.0703 -0.29271,0.0703 h -0.66802 q -0.37297,0 -0.56889,-0.16122 -0.19357,-0.16123 -0.19357,-0.4713 0,-0.39894 0.30687,-0.68833 0.30923,-0.28939 0.73413,-0.28939 0.30923,0 0.49571,0.14263 0.18884,0.14056 0.18884,0.37207 0,0.27906 -0.25966,0.41341 -0.14399,0.0765 -0.42961,0.0765 z m 0.11331,-0.3762 h 0.25966 q 0.25258,0 0.24549,-0.0972 -0.007,-0.10955 -0.16287,-0.10955 -0.21717,0 -0.34228,0.20671 z"
       style="font-style:italic;font-variant:normal;font-weight:normal;font-stretch:semi-expanded;font-size:4.23333311px;line-height:1.25;font-family:'Harlow Solid Italic';-inkscape-font-specification:'Harlow Solid Italic, Italic Semi-Expanded';font-variant-ligatures:normal;font-variant-caps:normal;font-variant-numeric:normal;font-feature-settings:normal;text-align:start;letter-spacing:0px;word-spacing:0px;writing-mode:lr-tb;text-anchor:start;fill:#28170b;fill-opacity:1;stroke:none;stroke-width:0.28274244"
       id="path2846"
       inkscape:connector-curvature="0" />
    <path
       d="m -177.41828,143.70906 -0.0448,0.0951 q -0.10387,0.20465 -0.29507,0.20465 -0.0968,0 -0.17468,-0.0579 -0.0755,-0.0599 -0.0755,-0.13642 0,-0.0724 0.0685,-0.19224 l 0.31395,-0.55811 q 0.11567,-0.2005 0.28799,-0.2005 0.0921,0 0.15815,0.0537 0.0661,0.0517 0.0661,0.12403 0,0.0186 -0.0142,0.0806 -0.01,0.0455 -0.01,0.0806 0,0.13022 0.11094,0.26665 l 0.13455,0.16329 q 0.20537,0.25012 0.20537,0.4837 0,0.26045 -0.22189,0.43615 -0.22189,0.17363 -0.55236,0.17363 h -0.49335 q -0.29979,0 -0.29979,-0.1819 0,-0.12609 0.10623,-0.19637 0.10622,-0.0724 0.2927,-0.0724 h 0.27382 q 0.32812,0 0.32812,-0.20877 0,-0.0765 -0.0614,-0.17984 z"
       style="font-style:italic;font-variant:normal;font-weight:normal;font-stretch:semi-expanded;font-size:4.23333311px;line-height:1.25;font-family:'Harlow Solid Italic';-inkscape-font-specification:'Harlow Solid Italic, Italic Semi-Expanded';font-variant-ligatures:normal;font-variant-caps:normal;font-variant-numeric:normal;font-feature-settings:normal;text-align:start;letter-spacing:0px;word-spacing:0px;writing-mode:lr-tb;text-anchor:start;fill:#28170b;fill-opacity:1;stroke:none;stroke-width:0.28274244"
       id="path2848"
       inkscape:connector-curvature="0" />
    <path
       d="m -175.33394,143.14475 h 0.0732 q 0.29979,0 0.29979,0.18397 0,0.12609 -0.10623,0.19637 -0.10622,0.0703 -0.2927,0.0703 h -0.17232 l -0.31631,0.68006 h 0.26438 q 0.29979,0 0.29979,0.18397 0,0.12609 -0.10623,0.19637 -0.10386,0.0703 -0.29271,0.0703 h -0.42253 q -0.1794,0 -0.28563,-0.0724 -0.10386,-0.0724 -0.10386,-0.19637 0,-0.0765 0.0425,-0.1695 l 0.0448,-0.0909 0.27854,-0.60151 h -0.0354 q -0.26437,0 -0.26437,-0.17984 0,-0.12815 0.10386,-0.19843 0.10623,-0.0724 0.29506,-0.0724 h 0.10858 l 0.12511,-0.27079 0.026,-0.0558 q 0.11094,-0.22944 0.34936,-0.22944 0.0968,0 0.16524,0.0579 0.0708,0.0558 0.0708,0.13642 0,0.0786 -0.0614,0.19844 z"
       style="font-style:italic;font-variant:normal;font-weight:normal;font-stretch:semi-expanded;font-size:4.23333311px;line-height:1.25;font-family:'Harlow Solid Italic';-inkscape-font-specification:'Harlow Solid Italic, Italic Semi-Expanded';font-variant-ligatures:normal;font-variant-caps:normal;font-variant-numeric:normal;font-feature-settings:normal;text-align:start;letter-spacing:0px;word-spacing:0px;writing-mode:lr-tb;text-anchor:start;fill:#28170b;fill-opacity:1;stroke:none;stroke-width:0.28274244"
       id="path2850"
       inkscape:connector-curvature="0" />
    <path
       inkscape:connector-curvature="0"
       id="path2951"
       style="font-style:normal;font-variant:normal;font-weight:normal;font-stretch:normal;font-size:4.23333311px;line-height:1.25;font-family:MoolBoran;-inkscape-font-specification:'MoolBoran, Normal';font-variant-ligatures:normal;font-variant-caps:normal;font-variant-numeric:normal;font-feature-settings:normal;text-align:start;letter-spacing:0px;word-spacing:0px;writing-mode:lr-tb;text-anchor:start;fill:#333333;fill-opacity:1;stroke:none;stroke-width:0.26458332"
       d="m -183.48217,150.28552 h -1.08934 v -1.90583 h 1.05213 l -0.0186,0.1943 -0.66559,0.008 v 0.62012 l 0.62631,0.008 -0.0165,0.1757 -0.60978,0.0145 v 0.68213 l 0.73794,0.0145 z" />
    <path
       inkscape:connector-curvature="0"
       id="path2953"
       style="font-style:normal;font-variant:normal;font-weight:normal;font-stretch:normal;font-size:4.23333311px;line-height:1.25;font-family:MoolBoran;-inkscape-font-specification:'MoolBoran, Normal';font-variant-ligatures:normal;font-variant-caps:normal;font-variant-numeric:normal;font-feature-settings:normal;text-align:start;letter-spacing:0px;word-spacing:0px;writing-mode:lr-tb;text-anchor:start;fill:#333333;fill-opacity:1;stroke:none;stroke-width:0.26458332"
       d="m -182.07451,149.72741 q 0,0.10336 -0.0496,0.20877 -0.0496,0.10336 -0.14262,0.18811 -0.093,0.0827 -0.22531,0.13642 -0.13023,0.0517 -0.29353,0.0517 -0.0868,0 -0.16123,-0.0103 -0.0744,-0.0103 -0.14056,-0.0269 -0.0641,-0.0186 -0.12402,-0.0434 -0.0599,-0.0269 -0.11989,-0.0579 l 0.0909,-0.28319 q 0.0393,0.0269 0.10335,0.0579 0.0661,0.031 0.14263,0.0579 0.0765,0.0269 0.15296,0.0455 0.0785,0.0165 0.14263,0.0165 0.0724,0 0.11782,-0.008 0.0475,-0.0103 0.0847,-0.0269 0.0413,-0.0165 0.0662,-0.0827 0.0248,-0.0661 0.0248,-0.17156 0,-0.0971 -0.0641,-0.15503 -0.0641,-0.0579 -0.16123,-0.0992 -0.0951,-0.0434 -0.2067,-0.0847 -0.11163,-0.0434 -0.20878,-0.10955 -0.0951,-0.0682 -0.15916,-0.17364 -0.0641,-0.10542 -0.0641,-0.27698 0,-0.0827 0.0434,-0.17363 0.0434,-0.093 0.12609,-0.1695 0.0827,-0.0786 0.20464,-0.12816 0.12196,-0.0496 0.27698,-0.0496 0.12403,0 0.23772,0.0124 0.11575,0.0124 0.22324,0.0331 l -0.0579,0.28318 q -0.0496,-0.0186 -0.11369,-0.0351 -0.062,-0.0165 -0.12816,-0.0289 -0.0641,-0.0124 -0.12609,-0.0186 -0.062,-0.008 -0.10955,-0.008 -0.0537,0 -0.0992,0.006 -0.0455,0.004 -0.0827,0.0269 -0.0351,0.0207 -0.0517,0.0724 -0.0145,0.0496 -0.0145,0.11989 0,0.0724 0.0372,0.11989 0.0372,0.0475 0.0971,0.0848 0.062,0.0351 0.13849,0.0661 0.0786,0.0289 0.15916,0.0641 0.0827,0.0331 0.15917,0.0785 0.0786,0.0434 0.13849,0.10956 0.062,0.0641 0.0992,0.15709 0.0372,0.093 0.0372,0.22531 z" />
    <path
       inkscape:connector-curvature="0"
       id="path2955"
       style="font-style:normal;font-variant:normal;font-weight:normal;font-stretch:normal;font-size:4.23333311px;line-height:1.25;font-family:MoolBoran;-inkscape-font-specification:'MoolBoran, Normal';font-variant-ligatures:normal;font-variant-caps:normal;font-variant-numeric:normal;font-feature-settings:normal;text-align:start;letter-spacing:0px;word-spacing:0px;writing-mode:lr-tb;text-anchor:start;fill:#333333;fill-opacity:1;stroke:none;stroke-width:0.26458332"
       d="m -181.40685,150.28552 v -1.70326 l -0.55604,-0.008 0.0186,-0.1943 h 1.46555 l -0.0186,0.1881 -0.53951,0.0145 v 1.70326 z" />
    <path
       inkscape:connector-curvature="0"
       id="path2957"
       style="font-style:normal;font-variant:normal;font-weight:normal;font-stretch:normal;font-size:4.23333311px;line-height:1.25;font-family:MoolBoran;-inkscape-font-specification:'MoolBoran, Normal';font-variant-ligatures:normal;font-variant-caps:normal;font-variant-numeric:normal;font-feature-settings:normal;text-align:start;letter-spacing:0px;word-spacing:0px;writing-mode:lr-tb;text-anchor:start;fill:#333333;fill-opacity:1;stroke:none;stroke-width:0.26458332"
       d="m -179.47415,149.01015 q 0,-0.0289 -0.002,-0.0558 -0.002,-0.0227 -0.002,-0.0455 0,-0.0248 0,-0.0413 v -0.66972 l 0.36174,-0.0744 v 2.16214 h -0.24598 l -0.10129,-0.11989 h -0.006 q -0.0744,0.0537 -0.16123,0.0992 -0.0847,0.0455 -0.19637,0.0455 -0.0992,0 -0.19224,-0.0331 -0.0909,-0.0351 -0.16123,-0.10955 -0.0703,-0.0744 -0.11369,-0.19431 -0.0413,-0.11989 -0.0413,-0.29145 0,-0.1633 0.0413,-0.29146 0.0413,-0.13023 0.11989,-0.21911 0.0786,-0.0889 0.19017,-0.13642 0.11162,-0.0475 0.25218,-0.0475 0.0579,0 0.12403,0.006 0.0682,0.006 0.13435,0.0165 z m -0.48782,0.65113 q 0,0.2191 0.0724,0.32246 0.0724,0.10128 0.19223,0.10128 0.0599,0 0.11576,-0.0165 0.0579,-0.0165 0.10128,-0.0393 v -0.83095 q -0.0827,-0.0186 -0.16536,-0.0186 -0.0765,0 -0.13436,0.0124 -0.0579,0.0124 -0.0909,0.0413 -0.031,0.031 -0.062,0.13849 -0.0289,0.10749 -0.0289,0.28939 z" />
    <path
       inkscape:connector-curvature="0"
       id="path2959"
       style="font-style:normal;font-variant:normal;font-weight:normal;font-stretch:normal;font-size:4.23333311px;line-height:1.25;font-family:MoolBoran;-inkscape-font-specification:'MoolBoran, Normal';font-variant-ligatures:normal;font-variant-caps:normal;font-variant-numeric:normal;font-feature-settings:normal;text-align:start;letter-spacing:0px;word-spacing:0px;writing-mode:lr-tb;text-anchor:start;fill:#333333;fill-opacity:1;stroke:none;stroke-width:0.26458332"
       d="m -178.56258,149.81836 0.24392,0.25426 -0.24392,0.25631 -0.24184,-0.25631 z" />
    <path
       inkscape:connector-curvature="0"
       id="path2961"
       style="font-style:normal;font-variant:normal;font-weight:normal;font-stretch:normal;font-size:4.23333311px;line-height:1.25;font-family:MoolBoran;-inkscape-font-specification:'MoolBoran, Normal';font-variant-ligatures:normal;font-variant-caps:normal;font-variant-numeric:normal;font-feature-settings:normal;text-align:start;letter-spacing:0px;word-spacing:0px;writing-mode:lr-tb;text-anchor:start;fill:#333333;fill-opacity:1;stroke:none;stroke-width:0.26458332"
       d="m -177.17145,150.00027 q 0.0455,0 0.10749,0 0.0641,-0.002 0.13229,-0.002 0.0703,-0.002 0.14469,-0.002 0.0744,-0.002 0.1447,-0.004 0.16536,-0.004 0.3452,-0.008 l -0.0599,0.30179 h -1.18443 v -0.13023 l 0.54364,-0.66146 q 0.10955,-0.13229 0.17157,-0.26044 0.0641,-0.13023 0.0641,-0.27906 0,-0.14883 -0.0827,-0.23563 -0.0806,-0.0868 -0.24805,-0.0868 -0.0992,0 -0.21084,0.0289 -0.11162,0.0269 -0.21084,0.0641 l 0.0393,-0.30385 q 0.0372,-0.0124 0.093,-0.0227 0.0579,-0.0124 0.12195,-0.0207 0.0641,-0.008 0.12816,-0.0124 0.0661,-0.006 0.12196,-0.006 0.12816,0 0.23978,0.0289 0.11369,0.0289 0.19637,0.0868 0.0848,0.0579 0.13229,0.14676 0.0496,0.0868 0.0496,0.2067 0,0.0992 -0.031,0.19224 -0.031,0.0909 -0.0848,0.17983 -0.0537,0.0868 -0.12609,0.1757 -0.0703,0.0868 -0.1509,0.17984 z" />
    <path
       inkscape:connector-curvature="0"
       id="path2963"
       style="font-style:normal;font-variant:normal;font-weight:normal;font-stretch:normal;font-size:4.23333311px;line-height:1.25;font-family:MoolBoran;-inkscape-font-specification:'MoolBoran, Normal';font-variant-ligatures:normal;font-variant-caps:normal;font-variant-numeric:normal;font-feature-settings:normal;text-align:start;letter-spacing:0px;word-spacing:0px;writing-mode:lr-tb;text-anchor:start;fill:#333333;fill-opacity:1;stroke:none;stroke-width:0.26458332"
       d="m -175.45372,150.30826 q -0.17157,0 -0.29353,-0.062 -0.12195,-0.0641 -0.19843,-0.18603 -0.0765,-0.12403 -0.11162,-0.30592 -0.0351,-0.18191 -0.0351,-0.41962 0,-0.22531 0.0331,-0.40513 0.0351,-0.18191 0.10955,-0.30799 0.0765,-0.12609 0.19844,-0.19431 0.12195,-0.0682 0.29765,-0.0682 0.17364,0 0.29559,0.0662 0.12196,0.0641 0.19844,0.1881 0.0765,0.12402 0.10955,0.30592 0.0351,0.17984 0.0351,0.41135 0,0.22737 -0.0351,0.40927 -0.0331,0.17984 -0.10955,0.30592 -0.0765,0.1261 -0.19844,0.1943 -0.12195,0.0682 -0.29559,0.0682 z m -0.26252,-0.97566 q 0,0.40721 0.0558,0.59738 0.0579,0.19017 0.20464,0.19017 0.0537,0 0.10335,-0.0124 0.0496,-0.0145 0.0889,-0.0372 0.0331,-0.0227 0.0537,-0.2005 0.0207,-0.17777 0.0207,-0.53537 0,-0.40101 -0.0599,-0.59531 -0.0599,-0.1943 -0.20257,-0.1943 -0.0537,0 -0.0971,0.0103 -0.0413,0.0103 -0.0765,0.0289 -0.0413,0.0227 -0.0661,0.21291 -0.0248,0.19017 -0.0248,0.53536 z" />
    <path
       inkscape:connector-curvature="0"
       id="path2965"
       style="font-style:normal;font-variant:normal;font-weight:normal;font-stretch:normal;font-size:4.23333311px;line-height:1.25;font-family:MoolBoran;-inkscape-font-specification:'MoolBoran, Normal';font-variant-ligatures:normal;font-variant-caps:normal;font-variant-numeric:normal;font-feature-settings:normal;text-align:start;letter-spacing:0px;word-spacing:0px;writing-mode:lr-tb;text-anchor:start;fill:#333333;fill-opacity:1;stroke:none;stroke-width:0.26458332"
       d="m -173.97991,150.28552 v -1.61437 l -0.47749,0.37413 -0.10542,-0.16535 0.67179,-0.50023 h 0.27285 v 1.90583 z" />
    <path
       inkscape:connector-curvature="0"
       id="path2967"
       style="font-style:normal;font-variant:normal;font-weight:normal;font-stretch:normal;font-size:4.23333311px;line-height:1.25;font-family:MoolBoran;-inkscape-font-specification:'MoolBoran, Normal';font-variant-ligatures:normal;font-variant-caps:normal;font-variant-numeric:normal;font-feature-settings:normal;text-align:start;letter-spacing:0px;word-spacing:0px;writing-mode:lr-tb;text-anchor:start;fill:#333333;fill-opacity:1;stroke:none;stroke-width:0.26458332"
       d="m -172.50817,150.31032 q -0.31006,0 -0.47542,-0.13435 -0.1633,-0.13642 -0.1633,-0.39688 0,-0.0827 0.0248,-0.1571 0.0269,-0.0765 0.0703,-0.13849 0.0434,-0.062 0.10129,-0.10542 0.0579,-0.0455 0.12402,-0.0703 -0.0558,-0.0227 -0.10748,-0.0641 -0.0517,-0.0413 -0.091,-0.0971 -0.0372,-0.0579 -0.0599,-0.12816 -0.0227,-0.0703 -0.0227,-0.15089 0,-0.23565 0.14676,-0.37001 0.14882,-0.13642 0.43821,-0.13642 0.28939,0 0.43615,0.13229 0.14883,0.13022 0.14883,0.37 0,0.0765 -0.0227,0.1447 -0.0227,0.0682 -0.06,0.12402 -0.0372,0.0558 -0.0868,0.0992 -0.0496,0.0413 -0.10335,0.0661 0.0703,0.0227 0.13229,0.0682 0.062,0.0434 0.10748,0.10542 0.0455,0.062 0.0724,0.14056 0.0269,0.0765 0.0269,0.16329 0,0.25012 -0.16123,0.39275 -0.15916,0.14262 -0.47542,0.14262 z m -0.27078,-0.5333 q 0,0.10336 0.0145,0.17157 0.0145,0.0682 0.0475,0.10749 0.0331,0.0393 0.0827,0.0558 0.0496,0.0145 0.12195,0.0145 0.0579,0 0.10542,-0.0124 0.0475,-0.0124 0.0827,-0.0331 0.0351,-0.0207 0.0599,-0.0951 0.0248,-0.0744 0.0248,-0.20671 0,-0.20464 -0.0641,-0.29352 -0.062,-0.0889 -0.20257,-0.0889 -0.0558,0 -0.10128,0.0124 -0.0455,0.0103 -0.0847,0.0372 -0.0475,0.0331 -0.0682,0.12609 -0.0186,0.093 -0.0186,0.20464 z m 0.0393,-0.91157 q 0,0.19224 0.0496,0.27492 0.0496,0.0806 0.16536,0.0806 0.0475,0 0.0806,-0.0103 0.0351,-0.0103 0.0682,-0.0393 0.0413,-0.0331 0.0537,-0.11161 0.0145,-0.0806 0.0145,-0.19223 0,-0.0951 -0.0124,-0.1571 -0.0124,-0.062 -0.0393,-0.0992 -0.0248,-0.0372 -0.0661,-0.0517 -0.0393,-0.0145 -0.0951,-0.0145 -0.0951,0 -0.15089,0.0331 -0.0145,0.008 -0.0269,0.0351 -0.0124,0.0269 -0.0227,0.0661 -0.008,0.0393 -0.0145,0.0868 -0.004,0.0475 -0.004,0.0992 z" />
    <text
       xml:space="preserve"
       style="font-style:normal;font-variant:normal;font-weight:normal;font-stretch:normal;font-size:3.86552525px;line-height:1.25;font-family:'Britannic Bold';-inkscape-font-specification:'Britannic Bold, Normal';font-variant-ligatures:normal;font-variant-caps:normal;font-variant-numeric:normal;font-feature-settings:normal;text-align:start;letter-spacing:0.5291667px;word-spacing:0px;writing-mode:lr-tb;text-anchor:start;fill:#333333;fill-opacity:1;stroke:none;stroke-width:0.24159533"
       id="text3171"
       transform="rotate(-8.0123582,34.7032,428.52576)"><textPath
         xlink:href="#path3167"
         id="textPath3173"><tspan
   style="font-style:normal;font-variant:normal;font-weight:normal;font-stretch:normal;font-size:3.86552525px;font-family:'Britannic Bold';-inkscape-font-specification:'Britannic Bold, Normal';font-variant-ligatures:normal;font-variant-caps:normal;font-variant-numeric:normal;font-feature-settings:normal;text-align:start;letter-spacing:0.5291667px;writing-mode:lr-tb;text-anchor:start;fill:#333333;fill-opacity:1;stroke-width:0.24159533"
   id="tspan3169">Freshly Baked</tspan></textPath></text>
    <ellipse
       style="opacity:0.41700003;fill:#28170b;fill-opacity:1;stroke-width:0.2913774"
       id="path1567"
       cx="240.88397"
       cy="141.85005"
       rx="10.557146"
       ry="9.6217031"
       transform="scale(-1,1)" />
    <text
       xml:space="preserve"
       style="font-style:normal;font-variant:normal;font-weight:normal;font-stretch:normal;font-size:4.30296278px;line-height:1.25;font-family:MoolBoran;-inkscape-font-specification:'MoolBoran, Normal';font-variant-ligatures:normal;font-variant-caps:normal;font-variant-numeric:normal;font-feature-settings:normal;text-align:start;letter-spacing:1.03887916px;word-spacing:0px;writing-mode:lr-tb;text-anchor:start;fill:#000000;fill-opacity:1;stroke:none;stroke-width:0.26892531"
       id="text5276"
       transform="matrix(1.1488756,0,0,0.90332062,98.806511,19.246488)"><textPath
         xlink:href="#path1567"
         id="textPath5278"><tspan
   style="font-style:normal;font-variant:normal;font-weight:normal;font-stretch:normal;font-size:4.30296278px;font-family:MoolBoran;-inkscape-font-specification:'MoolBoran, Normal';font-variant-ligatures:normal;font-variant-caps:normal;font-variant-numeric:normal;font-feature-settings:normal;text-align:start;letter-spacing:1.03887916px;writing-mode:lr-tb;text-anchor:start;stroke-width:0.26892531"
   id="tspan5274">FRESHLY BAKED</tspan></textPath></text>
  </g>
</svg>
